<svg width="44" height="44" viewBox="0 0 44 44" fill="none" xmlns="http://www.w3.org/2000/svg">
<path fill-rule="evenodd" clip-rule="evenodd" d="M22 44C9.84984 44 0 34.1502 0 22C0 9.84973 9.84984 0 22 0C34.1503 0 44 9.84973 44 22C44 34.1502 34.1503 44 22 44ZM26.4667 14.2333C25.8223 13.5889 24.7777 13.5889 24.1333 14.2333L17.5333 20.8333C16.889 21.4777 16.889 22.5223 17.5333 23.1667L24.1333 29.7667C24.7777 30.411 25.8223 30.411 26.4667 29.7667C27.1111 29.1223 27.1111 28.0777 26.4667 27.4333L21.0335 22L26.4667 16.5667C27.1111 15.9224 27.1111 14.8776 26.4667 14.2333Z" fill="#4B4B4B"/>
</svg>
