<svg width="44" height="44" viewBox="0 0 44 44" fill="none" xmlns="http://www.w3.org/2000/svg">
<rect width="44" height="44" fill="#1E1E1E"/>
<path d="M-1605 -753C-1605 -754.105 -1604.1 -755 -1603 -755H1539C1540.1 -755 1541 -754.105 1541 -753V2298C1541 2299.1 1540.1 2300 1539 2300H-1603C-1604.1 2300 -1605 2299.1 -1605 2298V-753Z" fill="#404040"/>
<path d="M-1603 2296C-1601.9 2296 -1601 2296.9 -1601 2298H-1609C-1609 2301.31 -1606.31 2304 -1603 2304V2296ZM-1601 2298V2266.22H-1609V2298H-1601ZM-1601 2202.66V2139.09H-1609V2202.66H-1601ZM-1601 2075.53V2011.97H-1609V2075.53H-1601ZM-1601 1948.41V1884.84H-1609V1948.41H-1601ZM-1601 1821.28V1757.72H-1609V1821.28H-1601ZM-1601 1694.16V1630.59H-1609V1694.16H-1601ZM-1601 1567.03V1503.47H-1609V1567.03H-1601ZM-1601 1439.91V1376.34H-1609V1439.91H-1601ZM-1601 1312.78V1249.22H-1609V1312.78H-1601ZM-1601 1185.66V1122.09H-1609V1185.66H-1601ZM-1601 1058.53V994.969H-1609V1058.53H-1601ZM-1601 931.406V867.844H-1609V931.406H-1601ZM-1601 804.281V740.719H-1609V804.281H-1601ZM-1601 677.156V613.594H-1609V677.156H-1601ZM-1601 550.031V486.469H-1609V550.031H-1601ZM-1601 422.906V359.344H-1609V422.906H-1601ZM-1601 295.781V232.219H-1609V295.781H-1601ZM-1601 168.656V105.094H-1609V168.656H-1601ZM-1601 41.5312V-22.0314H-1609V41.5312H-1601ZM-1601 -85.5938V-149.156H-1609V-85.5938H-1601ZM-1601 -212.719V-276.281H-1609V-212.719H-1601ZM-1601 -339.844V-403.406H-1609V-339.844H-1601ZM-1601 -466.969V-530.531H-1609V-466.969H-1601ZM-1601 -594.094V-657.656H-1609V-594.094H-1601ZM-1601 -721.219V-753H-1609V-721.219H-1601ZM-1601 -753C-1601 -751.895 -1601.9 -751 -1603 -751V-759C-1606.31 -759 -1609 -756.314 -1609 -753H-1601ZM-1603 -751H-1571.58V-759H-1603V-751ZM-1508.74 -751H-1445.9V-759H-1508.74V-751ZM-1383.06 -751H-1320.22V-759H-1383.06V-751ZM-1257.38 -751H-1194.54V-759H-1257.38V-751ZM-1131.7 -751H-1068.86V-759H-1131.7V-751ZM-1006.02 -751H-943.18V-759H-1006.02V-751ZM-880.34 -751H-817.5V-759H-880.34V-751ZM-754.66 -751H-691.82V-759H-754.66V-751ZM-628.98 -751H-566.14V-759H-628.98V-751ZM-503.3 -751H-440.46V-759H-503.3V-751ZM-377.62 -751H-314.78V-759H-377.62V-751ZM-251.94 -751H-189.1V-759H-251.94V-751ZM-126.26 -751H-63.42V-759H-126.26V-751ZM-0.580078 -751H62.2599V-759H-0.580078V-751ZM125.1 -751H187.94V-759H125.1V-751ZM250.78 -751H313.62V-759H250.78V-751ZM376.46 -751H439.3V-759H376.46V-751ZM502.14 -751H564.98V-759H502.14V-751ZM627.82 -751H690.66V-759H627.82V-751ZM753.5 -751H816.34V-759H753.5V-751ZM879.18 -751H942.02V-759H879.18V-751ZM1004.86 -751H1067.7V-759H1004.86V-751ZM1130.54 -751H1193.38V-759H1130.54V-751ZM1256.22 -751H1319.06V-759H1256.22V-751ZM1381.9 -751H1444.74V-759H1381.9V-751ZM1507.58 -751H1539V-759H1507.58V-751ZM1539 -751C1537.9 -751 1537 -751.895 1537 -753H1545C1545 -756.314 1542.31 -759 1539 -759V-751ZM1537 -753V-721.219H1545V-753H1537ZM1537 -657.656V-594.094H1545V-657.656H1537ZM1537 -530.531V-466.969H1545V-530.531H1537ZM1537 -403.406V-339.844H1545V-403.406H1537ZM1537 -276.281V-212.719H1545V-276.281H1537ZM1537 -149.156V-85.5938H1545V-149.156H1537ZM1537 -22.0312V41.5312H1545V-22.0312H1537ZM1537 105.094V168.656H1545V105.094H1537ZM1537 232.219V295.781H1545V232.219H1537ZM1537 359.344V422.906H1545V359.344H1537ZM1537 486.469V550.031H1545V486.469H1537ZM1537 613.594V677.156H1545V613.594H1537ZM1537 740.719V804.281H1545V740.719H1537ZM1537 867.844V931.406H1545V867.844H1537ZM1537 994.969V1058.53H1545V994.969H1537ZM1537 1122.09V1185.66H1545V1122.09H1537ZM1537 1249.22V1312.78H1545V1249.22H1537ZM1537 1376.34V1439.91H1545V1376.34H1537ZM1537 1503.47V1567.03H1545V1503.47H1537ZM1537 1630.59V1694.16H1545V1630.59H1537ZM1537 1757.72V1821.28H1545V1757.72H1537ZM1537 1884.84V1948.41H1545V1884.84H1537ZM1537 2011.97V2075.53H1545V2011.97H1537ZM1537 2139.09V2202.66H1545V2139.09H1537ZM1537 2266.22V2298H1545V2266.22H1537ZM1537 2298C1537 2296.9 1537.9 2296 1539 2296V2304C1542.31 2304 1545 2301.31 1545 2298H1537ZM1539 2296H1507.58V2304H1539V2296ZM1444.74 2296H1381.9V2304H1444.74V2296ZM1319.06 2296H1256.22V2304H1319.06V2296ZM1193.38 2296H1130.54V2304H1193.38V2296ZM1067.7 2296H1004.86V2304H1067.7V2296ZM942.02 2296H879.18V2304H942.02V2296ZM816.34 2296H753.5V2304H816.34V2296ZM690.66 2296H627.82V2304H690.66V2296ZM564.98 2296H502.14V2304H564.98V2296ZM439.3 2296H376.46V2304H439.3V2296ZM313.62 2296H250.78V2304H313.62V2296ZM187.94 2296H125.1V2304H187.94V2296ZM62.26 2296H-0.579956V2304H62.26V2296ZM-63.4199 2296H-126.26V2304H-63.4199V2296ZM-189.1 2296H-251.94V2304H-189.1V2296ZM-314.78 2296H-377.62V2304H-314.78V2296ZM-440.46 2296H-503.3V2304H-440.46V2296ZM-566.14 2296H-628.98V2304H-566.14V2296ZM-691.82 2296H-754.66V2304H-691.82V2296ZM-817.5 2296H-880.34V2304H-817.5V2296ZM-943.18 2296H-1006.02V2304H-943.18V2296ZM-1068.86 2296H-1131.7V2304H-1068.86V2296ZM-1194.54 2296H-1257.38V2304H-1194.54V2296ZM-1320.22 2296H-1383.06V2304H-1320.22V2296ZM-1445.9 2296H-1508.74V2304H-1445.9V2296ZM-1571.58 2296H-1603V2304H-1571.58V2296Z" fill="white"/>
<rect width="1440" height="340" transform="translate(-1222 -251)" fill="#F4F5F7"/>
<g clip-path="url(#clip0_0_1)">
<rect x="-1142" y="-140" width="1280" height="210" rx="20" fill="#333333"/>
<rect x="-6" width="104" height="44" fill="#333333"/>
<rect x="11" y="13.8975" width="21.0833" height="26.6444" fill="#333333"/>
<path fill-rule="evenodd" clip-rule="evenodd" d="M22 44C9.84984 44 0 34.1502 0 22C0 9.84973 9.84984 0 22 0C34.1503 0 44 9.84973 44 22C44 34.1502 34.1503 44 22 44ZM26.4667 14.2333C25.8223 13.5889 24.7777 13.5889 24.1333 14.2333L17.5333 20.8333C16.889 21.4777 16.889 22.5223 17.5333 23.1667L24.1333 29.7667C24.7777 30.411 25.8223 30.411 26.4667 29.7667C27.1111 29.1223 27.1111 28.0777 26.4667 27.4333L21.0335 22L26.4667 16.5667C27.1111 15.9224 27.1111 14.8776 26.4667 14.2333Z" fill="#4B4B4B"/>
</g>
<defs>
<clipPath id="clip0_0_1">
<rect x="-1142" y="-140" width="1280" height="210" rx="20" fill="white"/>
</clipPath>
</defs>
</svg>
