<svg width="44" height="44" viewBox="0 0 44 44" fill="none" xmlns="http://www.w3.org/2000/svg">
<rect width="44" height="44" fill="#1E1E1E"/>
<g id="Header possibility">
<path d="M-1655 -753C-1655 -754.105 -1654.1 -755 -1653 -755H1489C1490.1 -755 1491 -754.105 1491 -753V2298C1491 2299.1 1490.1 2300 1489 2300H-1653C-1654.1 2300 -1655 2299.1 -1655 2298V-753Z" fill="#404040"/>
<path d="M-1653 2296C-1651.9 2296 -1651 2296.9 -1651 2298H-1659C-1659 2301.31 -1656.31 2304 -1653 2304V2296ZM-1651 2298V2266.22H-1659V2298H-1651ZM-1651 2202.66V2139.09H-1659V2202.66H-1651ZM-1651 2075.53V2011.97H-1659V2075.53H-1651ZM-1651 1948.41V1884.84H-1659V1948.41H-1651ZM-1651 1821.28V1757.72H-1659V1821.28H-1651ZM-1651 1694.16V1630.59H-1659V1694.16H-1651ZM-1651 1567.03V1503.47H-1659V1567.03H-1651ZM-1651 1439.91V1376.34H-1659V1439.91H-1651ZM-1651 1312.78V1249.22H-1659V1312.78H-1651ZM-1651 1185.66V1122.09H-1659V1185.66H-1651ZM-1651 1058.53V994.969H-1659V1058.53H-1651ZM-1651 931.406V867.844H-1659V931.406H-1651ZM-1651 804.281V740.719H-1659V804.281H-1651ZM-1651 677.156V613.594H-1659V677.156H-1651ZM-1651 550.031V486.469H-1659V550.031H-1651ZM-1651 422.906V359.344H-1659V422.906H-1651ZM-1651 295.781V232.219H-1659V295.781H-1651ZM-1651 168.656V105.094H-1659V168.656H-1651ZM-1651 41.5312V-22.0314H-1659V41.5312H-1651ZM-1651 -85.5938V-149.156H-1659V-85.5938H-1651ZM-1651 -212.719V-276.281H-1659V-212.719H-1651ZM-1651 -339.844V-403.406H-1659V-339.844H-1651ZM-1651 -466.969V-530.531H-1659V-466.969H-1651ZM-1651 -594.094V-657.656H-1659V-594.094H-1651ZM-1651 -721.219V-753H-1659V-721.219H-1651ZM-1651 -753C-1651 -751.895 -1651.9 -751 -1653 -751V-759C-1656.31 -759 -1659 -756.314 -1659 -753H-1651ZM-1653 -751H-1621.58V-759H-1653V-751ZM-1558.74 -751H-1495.9V-759H-1558.74V-751ZM-1433.06 -751H-1370.22V-759H-1433.06V-751ZM-1307.38 -751H-1244.54V-759H-1307.38V-751ZM-1181.7 -751H-1118.86V-759H-1181.7V-751ZM-1056.02 -751H-993.18V-759H-1056.02V-751ZM-930.34 -751H-867.5V-759H-930.34V-751ZM-804.66 -751H-741.82V-759H-804.66V-751ZM-678.98 -751H-616.14V-759H-678.98V-751ZM-553.3 -751H-490.46V-759H-553.3V-751ZM-427.62 -751H-364.78V-759H-427.62V-751ZM-301.94 -751H-239.1V-759H-301.94V-751ZM-176.26 -751H-113.42V-759H-176.26V-751ZM-50.5801 -751H12.2599V-759H-50.5801V-751ZM75.0999 -751H137.94V-759H75.0999V-751ZM200.78 -751H263.62V-759H200.78V-751ZM326.46 -751H389.3V-759H326.46V-751ZM452.14 -751H514.98V-759H452.14V-751ZM577.82 -751H640.66V-759H577.82V-751ZM703.5 -751H766.34V-759H703.5V-751ZM829.18 -751H892.02V-759H829.18V-751ZM954.86 -751H1017.7V-759H954.86V-751ZM1080.54 -751H1143.38V-759H1080.54V-751ZM1206.22 -751H1269.06V-759H1206.22V-751ZM1331.9 -751H1394.74V-759H1331.9V-751ZM1457.58 -751H1489V-759H1457.58V-751ZM1489 -751C1487.9 -751 1487 -751.895 1487 -753H1495C1495 -756.314 1492.31 -759 1489 -759V-751ZM1487 -753V-721.219H1495V-753H1487ZM1487 -657.656V-594.094H1495V-657.656H1487ZM1487 -530.531V-466.969H1495V-530.531H1487ZM1487 -403.406V-339.844H1495V-403.406H1487ZM1487 -276.281V-212.719H1495V-276.281H1487ZM1487 -149.156V-85.5938H1495V-149.156H1487ZM1487 -22.0312V41.5312H1495V-22.0312H1487ZM1487 105.094V168.656H1495V105.094H1487ZM1487 232.219V295.781H1495V232.219H1487ZM1487 359.344V422.906H1495V359.344H1487ZM1487 486.469V550.031H1495V486.469H1487ZM1487 613.594V677.156H1495V613.594H1487ZM1487 740.719V804.281H1495V740.719H1487ZM1487 867.844V931.406H1495V867.844H1487ZM1487 994.969V1058.53H1495V994.969H1487ZM1487 1122.09V1185.66H1495V1122.09H1487ZM1487 1249.22V1312.78H1495V1249.22H1487ZM1487 1376.34V1439.91H1495V1376.34H1487ZM1487 1503.47V1567.03H1495V1503.47H1487ZM1487 1630.59V1694.16H1495V1630.59H1487ZM1487 1757.72V1821.28H1495V1757.72H1487ZM1487 1884.84V1948.41H1495V1884.84H1487ZM1487 2011.97V2075.53H1495V2011.97H1487ZM1487 2139.09V2202.66H1495V2139.09H1487ZM1487 2266.22V2298H1495V2266.22H1487ZM1487 2298C1487 2296.9 1487.9 2296 1489 2296V2304C1492.31 2304 1495 2301.31 1495 2298H1487ZM1489 2296H1457.58V2304H1489V2296ZM1394.74 2296H1331.9V2304H1394.74V2296ZM1269.06 2296H1206.22V2304H1269.06V2296ZM1143.38 2296H1080.54V2304H1143.38V2296ZM1017.7 2296H954.86V2304H1017.7V2296ZM892.02 2296H829.18V2304H892.02V2296ZM766.34 2296H703.5V2304H766.34V2296ZM640.66 2296H577.82V2304H640.66V2296ZM514.98 2296H452.14V2304H514.98V2296ZM389.3 2296H326.46V2304H389.3V2296ZM263.62 2296H200.78V2304H263.62V2296ZM137.94 2296H75.1V2304H137.94V2296ZM12.26 2296H-50.58V2304H12.26V2296ZM-113.42 2296H-176.26V2304H-113.42V2296ZM-239.1 2296H-301.94V2304H-239.1V2296ZM-364.78 2296H-427.62V2304H-364.78V2296ZM-490.46 2296H-553.3V2304H-490.46V2296ZM-616.14 2296H-678.98V2304H-616.14V2296ZM-741.82 2296H-804.66V2304H-741.82V2296ZM-867.5 2296H-930.34V2304H-867.5V2296ZM-993.18 2296H-1056.02V2304H-993.18V2296ZM-1118.86 2296H-1181.7V2304H-1118.86V2296ZM-1244.54 2296H-1307.38V2304H-1244.54V2296ZM-1370.22 2296H-1433.06V2304H-1370.22V2296ZM-1495.9 2296H-1558.74V2304H-1495.9V2296ZM-1621.58 2296H-1653V2304H-1621.58V2296Z" fill="white"/>
<g id="Landing user login - desktop">
<rect width="1440" height="340" transform="translate(-1272 -251)" fill="#F4F5F7"/>
<g id="Banner - User Login">
<g clip-path="url(#clip0_0_1)">
<rect x="-1192" y="-140" width="1280" height="210" rx="20" fill="#333333"/>
<rect id="Rectangle 9" x="-56" width="104" height="44" fill="#333333"/>
<g id="Group 7">
<rect id="Rectangle 8" x="11" y="13.8975" width="21.0833" height="26.6444" fill="#333333"/>
<path id="Vector" fill-rule="evenodd" clip-rule="evenodd" d="M22 44C34.1502 44 44 34.1502 44 22C44 9.84973 34.1502 0 22 0C9.84973 0 0 9.84973 0 22C0 34.1502 9.84973 44 22 44ZM17.5333 14.2333C18.1777 13.5889 19.2223 13.5889 19.8667 14.2333L26.4667 20.8333C27.111 21.4777 27.111 22.5223 26.4667 23.1667L19.8667 29.7667C19.2223 30.411 18.1777 30.411 17.5333 29.7667C16.8889 29.1223 16.8889 28.0777 17.5333 27.4333L22.9665 22L17.5333 16.5667C16.8889 15.9224 16.8889 14.8776 17.5333 14.2333Z" fill="#FCD02F"/>
</g>
</g>
</g>
</g>
</g>
<defs>
<clipPath id="clip0_0_1">
<rect x="-1192" y="-140" width="1280" height="210" rx="20" fill="white"/>
</clipPath>
</defs>
</svg>
