<svg width="44" height="44" viewBox="0 0 44 44" fill="none" xmlns="http://www.w3.org/2000/svg">
<path fill-rule="evenodd" clip-rule="evenodd" d="M22 44C34.1502 44 44 34.1502 44 22C44 9.84973 34.1502 0 22 0C9.84973 0 0 9.84973 0 22C0 34.1502 9.84973 44 22 44ZM17.5333 14.2333C18.1777 13.5889 19.2223 13.5889 19.8667 14.2333L26.4667 20.8333C27.111 21.4777 27.111 22.5223 26.4667 23.1667L19.8667 29.7667C19.2223 30.411 18.1777 30.411 17.5333 29.7667C16.8889 29.1223 16.8889 28.0777 17.5333 27.4333L22.9665 22L17.5333 16.5667C16.8889 15.9224 16.8889 14.8776 17.5333 14.2333Z" fill="#FCD02F"/>
</svg>
