<svg width="18" height="18" viewBox="0 0 18 18" fill="none" xmlns="http://www.w3.org/2000/svg">
<path d="M6.21585 13.4444H3.06287C1.89435 13.4444 1.31009 13.4444 1.18716 13.3576C1.04906 13.26 1.01532 13.2024 1.00036 13.0388C0.987051 12.8931 1.34514 12.3321 2.06133 11.2103C2.80078 10.052 3.42867 8.36551 3.42867 5.97778C3.42867 4.65759 4.01565 3.39148 5.06046 2.45796C6.10529 1.52444 7.52237 1 8.99998 1C10.4776 1 11.8946 1.52444 12.9395 2.45796C13.9844 3.39148 14.5713 4.65759 14.5713 5.97778C14.5713 8.36551 15.1992 10.052 15.9387 11.2103C16.6548 12.3321 17.0129 12.8931 16.9996 13.0388C16.9847 13.2024 16.9509 13.26 16.8128 13.3576C16.6899 13.4444 16.1056 13.4444 14.9371 13.4444H11.7856M6.21585 13.4444L6.21433 14.3333C6.21433 15.8061 7.46155 17 8.99998 17C10.5385 17 11.7856 15.8061 11.7856 14.3333V13.4444M6.21585 13.4444H11.7856" stroke="#AAAAAA" stroke-width="1.3" stroke-linecap="round" stroke-linejoin="round"/>
</svg>
