<svg width="100" height="6" viewBox="0 0 100 6" fill="none" xmlns="http://www.w3.org/2000/svg">
<rect width="100" height="6" fill="#1E1E1E"/>
<g id="User Journey - Not Registered">
<path d="M-1588 -1833C-1588 -1888.23 -1543.23 -1933 -1488 -1933H8140C8195.23 -1933 8240 -1888.23 8240 -1833V7794C8240 7849.23 8195.23 7894 8140 7894H-1488C-1543.23 7894 -1588 7849.23 -1588 7794V-1833Z" fill="#404040"/>
<path d="M-1488 7890C-1501.02 7890 -1513.43 7887.41 -1524.75 7882.72L-1527.81 7890.11C-1515.54 7895.19 -1502.09 7898 -1488 7898V7890ZM-1576.72 7830.75C-1581.41 7819.43 -1584 7807.02 -1584 7794H-1592C-1592 7808.09 -1589.19 7821.54 -1584.11 7833.81L-1576.72 7830.75ZM-1584 7794V7761.91H-1592V7794H-1584ZM-1584 7697.73V7633.55H-1592V7697.73H-1584ZM-1584 7569.37V7505.19H-1592V7569.37H-1584ZM-1584 7441.01V7376.83H-1592V7441.01H-1584ZM-1584 7312.65V7248.47H-1592V7312.65H-1584ZM-1584 7184.29V7120.11H-1592V7184.29H-1584ZM-1584 7055.93V6991.75H-1592V7055.93H-1584ZM-1584 6927.57V6863.39H-1592V6927.57H-1584ZM-1584 6799.21V6735.03H-1592V6799.21H-1584ZM-1584 6670.85V6606.67H-1592V6670.85H-1584ZM-1584 6542.49V6478.31H-1592V6542.49H-1584ZM-1584 6414.13V6349.95H-1592V6414.13H-1584ZM-1584 6285.77V6221.59H-1592V6285.77H-1584ZM-1584 6157.41V6093.23H-1592V6157.41H-1584ZM-1584 6029.05V5964.87H-1592V6029.05H-1584ZM-1584 5900.69V5836.51H-1592V5900.69H-1584ZM-1584 5772.33V5708.15H-1592V5772.33H-1584ZM-1584 5643.97V5579.79H-1592V5643.97H-1584ZM-1584 5515.61V5451.43H-1592V5515.61H-1584ZM-1584 5387.25V5323.07H-1592V5387.25H-1584ZM-1584 5258.89V5194.71H-1592V5258.89H-1584ZM-1584 5130.53V5066.35H-1592V5130.53H-1584ZM-1584 5002.17V4937.99H-1592V5002.17H-1584ZM-1584 4873.81V4809.63H-1592V4873.81H-1584ZM-1584 4745.45V4681.27H-1592V4745.45H-1584ZM-1584 4617.09V4552.91H-1592V4617.09H-1584ZM-1584 4488.73V4424.55H-1592V4488.73H-1584ZM-1584 4360.37V4296.19H-1592V4360.37H-1584ZM-1584 4232.01V4167.83H-1592V4232.01H-1584ZM-1584 4103.65V4039.47H-1592V4103.65H-1584ZM-1584 3975.29V3911.11H-1592V3975.29H-1584ZM-1584 3846.93V3782.75H-1592V3846.93H-1584ZM-1584 3718.57V3654.39H-1592V3718.57H-1584ZM-1584 3590.21V3526.03H-1592V3590.21H-1584ZM-1584 3461.85V3397.67H-1592V3461.85H-1584ZM-1584 3333.49V3269.31H-1592V3333.49H-1584ZM-1584 3205.13V3140.95H-1592V3205.13H-1584ZM-1584 3076.77V3012.59H-1592V3076.77H-1584ZM-1584 2948.41V2884.23H-1592V2948.41H-1584ZM-1584 2820.05V2755.87H-1592V2820.05H-1584ZM-1584 2691.69V2627.51H-1592V2691.69H-1584ZM-1584 2563.33V2499.15H-1592V2563.33H-1584ZM-1584 2434.97V2370.79H-1592V2434.97H-1584ZM-1584 2306.61V2242.43H-1592V2306.61H-1584ZM-1584 2178.25V2114.07H-1592V2178.25H-1584ZM-1584 2049.89V1985.71H-1592V2049.89H-1584ZM-1584 1921.53V1857.35H-1592V1921.53H-1584ZM-1584 1793.17V1728.99H-1592V1793.17H-1584ZM-1584 1664.81V1600.63H-1592V1664.81H-1584ZM-1584 1536.45V1472.27H-1592V1536.45H-1584ZM-1584 1408.09V1343.9H-1592V1408.09H-1584ZM-1584 1279.72V1215.54H-1592V1279.72H-1584ZM-1584 1151.36V1087.18H-1592V1151.36H-1584ZM-1584 1023V958.824H-1592V1023H-1584ZM-1584 894.644V830.464H-1592V894.644H-1584ZM-1584 766.283V702.103H-1592V766.283H-1584ZM-1584 637.923V573.743H-1592V637.923H-1584ZM-1584 509.563V445.382H-1592V509.563H-1584ZM-1584 381.202V317.022H-1592V381.202H-1584ZM-1584 252.842V188.662H-1592V252.842H-1584ZM-1584 124.481V60.3014H-1592V124.481H-1584ZM-1584 -3.87854V-68.059H-1592V-3.87854H-1584ZM-1584 -132.239V-196.419H-1592V-132.239H-1584ZM-1584 -260.599V-324.78H-1592V-260.599H-1584ZM-1584 -388.96V-453.14H-1592V-388.96H-1584ZM-1584 -517.319V-581.499H-1592V-517.319H-1584ZM-1584 -645.678V-709.858H-1592V-645.678H-1584ZM-1584 -774.038V-838.218H-1592V-774.038H-1584ZM-1584 -902.397V-966.577H-1592V-902.397H-1584ZM-1584 -1030.76V-1094.94H-1592V-1030.76H-1584ZM-1584 -1159.12V-1223.3H-1592V-1159.12H-1584ZM-1584 -1287.48V-1351.65H-1592V-1287.48H-1584ZM-1584 -1415.83V-1480.01H-1592V-1415.83H-1584ZM-1584 -1544.19V-1608.37H-1592V-1544.19H-1584ZM-1584 -1672.55V-1736.73H-1592V-1672.55H-1584ZM-1584 -1800.91V-1833H-1592V-1800.91H-1584ZM-1584 -1833C-1584 -1846.02 -1581.41 -1858.43 -1576.72 -1869.75L-1584.11 -1872.81C-1589.19 -1860.54 -1592 -1847.09 -1592 -1833H-1584ZM-1524.75 -1921.72C-1513.43 -1926.41 -1501.02 -1929 -1488 -1929V-1937C-1502.09 -1937 -1515.54 -1934.19 -1527.81 -1929.11L-1524.75 -1921.72ZM-1488 -1929H-1455.91V-1937H-1488V-1929ZM-1391.72 -1929H-1327.53V-1937H-1391.72V-1929ZM-1263.35 -1929H-1199.16V-1937H-1263.35V-1929ZM-1134.97 -1929H-1070.79V-1937H-1134.97V-1929ZM-1006.6 -1929H-942.413V-1937H-1006.6V-1929ZM-878.227 -1929H-814.04V-1937H-878.227V-1929ZM-749.853 -1929H-685.667V-1937H-749.853V-1929ZM-621.48 -1929H-557.293V-1937H-621.48V-1929ZM-493.107 -1929H-428.92V-1937H-493.107V-1929ZM-364.733 -1929H-300.547V-1937H-364.733V-1929ZM-236.36 -1929H-172.173V-1937H-236.36V-1929ZM-107.987 -1929H-43.8002V-1937H-107.987V-1929ZM20.3866 -1929H84.5731V-1937H20.3866V-1929ZM148.76 -1929H212.947V-1937H148.76V-1929ZM277.133 -1929H341.32V-1937H277.133V-1929ZM405.506 -1929H469.693V-1937H405.506V-1929ZM533.88 -1929H598.066V-1937H533.88V-1929ZM662.253 -1929H726.44V-1937H662.253V-1929ZM790.627 -1929H854.813V-1937H790.627V-1929ZM919 -1929H983.187V-1937H919V-1929ZM1047.37 -1929H1111.56V-1937H1047.37V-1929ZM1175.75 -1929H1239.93V-1937H1175.75V-1929ZM1304.12 -1929H1368.31V-1937H1304.12V-1929ZM1432.49 -1929H1496.68V-1937H1432.49V-1929ZM1560.87 -1929H1625.05V-1937H1560.87V-1929ZM1689.24 -1929H1753.43V-1937H1689.24V-1929ZM1817.62 -1929H1881.8V-1937H1817.62V-1929ZM1945.99 -1929H2010.18V-1937H1945.99V-1929ZM2074.36 -1929H2138.55V-1937H2074.36V-1929ZM2202.74 -1929H2266.92V-1937H2202.74V-1929ZM2331.11 -1929H2395.3V-1937H2331.11V-1929ZM2459.48 -1929H2523.67V-1937H2459.48V-1929ZM2587.86 -1929H2652.04V-1937H2587.86V-1929ZM2716.23 -1929H2780.42V-1937H2716.23V-1929ZM2844.6 -1929H2908.79V-1937H2844.6V-1929ZM2972.98 -1929H3037.16V-1937H2972.98V-1929ZM3101.35 -1929H3165.54V-1937H3101.35V-1929ZM3229.72 -1929H3293.91V-1937H3229.72V-1929ZM3358.09 -1929H3422.28V-1937H3358.09V-1929ZM3486.47 -1929H3550.65V-1937H3486.47V-1929ZM3614.84 -1929H3679.03V-1937H3614.84V-1929ZM3743.21 -1929H3807.4V-1937H3743.21V-1929ZM3871.59 -1929H3935.77V-1937H3871.59V-1929ZM3999.96 -1929H4064.15V-1937H3999.96V-1929ZM4128.33 -1929H4192.52V-1937H4128.33V-1929ZM4256.71 -1929H4320.89V-1937H4256.71V-1929ZM4385.08 -1929H4449.27V-1937H4385.08V-1929ZM4513.45 -1929H4577.64V-1937H4513.45V-1929ZM4641.83 -1929H4706.01V-1937H4641.83V-1929ZM4770.2 -1929H4834.38V-1937H4770.2V-1929ZM4898.57 -1929H4962.76V-1937H4898.57V-1929ZM5026.94 -1929H5091.13V-1937H5026.94V-1929ZM5155.32 -1929H5219.5V-1937H5155.32V-1929ZM5283.69 -1929H5347.88V-1937H5283.69V-1929ZM5412.06 -1929H5476.25V-1937H5412.06V-1929ZM5540.44 -1929H5604.62V-1937H5540.44V-1929ZM5668.81 -1929H5733V-1937H5668.81V-1929ZM5797.18 -1929H5861.37V-1937H5797.18V-1929ZM5925.56 -1929H5989.74V-1937H5925.56V-1929ZM6053.93 -1929H6118.12V-1937H6053.93V-1929ZM6182.3 -1929H6246.49V-1937H6182.3V-1929ZM6310.67 -1929H6374.86V-1937H6310.67V-1929ZM6439.05 -1929H6503.23V-1937H6439.05V-1929ZM6567.42 -1929H6631.61V-1937H6567.42V-1929ZM6695.79 -1929H6759.98V-1937H6695.79V-1929ZM6824.17 -1929H6888.35V-1937H6824.17V-1929ZM6952.54 -1929H7016.73V-1937H6952.54V-1929ZM7080.91 -1929H7145.1V-1937H7080.91V-1929ZM7209.29 -1929H7273.47V-1937H7209.29V-1929ZM7337.66 -1929H7401.85V-1937H7337.66V-1929ZM7466.03 -1929H7530.22V-1937H7466.03V-1929ZM7594.41 -1929H7658.59V-1937H7594.41V-1929ZM7722.78 -1929H7786.96V-1937H7722.78V-1929ZM7851.15 -1929H7915.34V-1937H7851.15V-1929ZM7979.52 -1929H8043.71V-1937H7979.52V-1929ZM8107.9 -1929H8140V-1937H8107.9V-1929ZM8140 -1929C8153.02 -1929 8165.43 -1926.41 8176.75 -1921.72L8179.81 -1929.11C8167.54 -1934.19 8154.09 -1937 8140 -1937V-1929ZM8228.72 -1869.75C8233.41 -1858.43 8236 -1846.02 8236 -1833H8244C8244 -1847.09 8241.19 -1860.54 8236.11 -1872.81L8228.72 -1869.75ZM8236 -1833V-1800.91H8244V-1833H8236ZM8236 -1736.73V-1672.55H8244V-1736.73H8236ZM8236 -1608.37V-1544.19H8244V-1608.37H8236ZM8236 -1480.01V-1415.83H8244V-1480.01H8236ZM8236 -1351.65V-1287.47H8244V-1351.65H8236ZM8236 -1223.29V-1159.11H8244V-1223.29H8236ZM8236 -1094.93V-1030.75H8244V-1094.93H8236ZM8236 -966.57V-902.39H8244V-966.57H8236ZM8236 -838.21V-774.03H8244V-838.21H8236ZM8236 -709.85V-645.67H8244V-709.85H8236ZM8236 -581.49V-517.31H8244V-581.49H8236ZM8236 -453.13V-388.95H8244V-453.13H8236ZM8236 -324.77V-260.59H8244V-324.77H8236ZM8236 -196.41V-132.229H8244V-196.41H8236ZM8236 -68.0494V-3.86951H8244V-68.0494H8236ZM8236 60.3105V124.491H8244V60.3105H8236ZM8236 188.671V252.851H8244V188.671H8236ZM8236 317.031V381.211H8244V317.031H8236ZM8236 445.391V509.571H8244V445.391H8236ZM8236 573.75V637.93H8244V573.75H8236ZM8236 702.11V766.29H8244V702.11H8236ZM8236 830.47V894.65H8244V830.47H8236ZM8236 958.83V1023.01H8244V958.83H8236ZM8236 1087.19V1151.37H8244V1087.19H8236ZM8236 1215.55V1279.73H8244V1215.55H8236ZM8236 1343.91V1408.09H8244V1343.91H8236ZM8236 1472.27V1536.45H8244V1472.27H8236ZM8236 1600.63V1664.81H8244V1600.63H8236ZM8236 1728.99V1793.17H8244V1728.99H8236ZM8236 1857.35V1921.53H8244V1857.35H8236ZM8236 1985.71V2049.89H8244V1985.71H8236ZM8236 2114.07V2178.25H8244V2114.07H8236ZM8236 2242.43V2306.61H8244V2242.43H8236ZM8236 2370.79V2434.97H8244V2370.79H8236ZM8236 2499.15V2563.33H8244V2499.15H8236ZM8236 2627.51V2691.69H8244V2627.51H8236ZM8236 2755.87V2820.05H8244V2755.87H8236ZM8236 2884.23V2948.41H8244V2884.23H8236ZM8236 3012.59V3076.77H8244V3012.59H8236ZM8236 3140.95V3205.13H8244V3140.95H8236ZM8236 3269.31V3333.49H8244V3269.31H8236ZM8236 3397.67V3461.85H8244V3397.67H8236ZM8236 3526.03V3590.21H8244V3526.03H8236ZM8236 3654.39V3718.57H8244V3654.39H8236ZM8236 3782.75V3846.93H8244V3782.75H8236ZM8236 3911.11V3975.29H8244V3911.11H8236ZM8236 4039.47V4103.65H8244V4039.47H8236ZM8236 4167.83V4232.01H8244V4167.83H8236ZM8236 4296.19V4360.37H8244V4296.19H8236ZM8236 4424.55V4488.73H8244V4424.55H8236ZM8236 4552.91V4617.1H8244V4552.91H8236ZM8236 4681.28V4745.46H8244V4681.28H8236ZM8236 4809.64V4873.82H8244V4809.64H8236ZM8236 4938V5002.18H8244V4938H8236ZM8236 5066.36V5130.54H8244V5066.36H8236ZM8236 5194.72V5258.9H8244V5194.72H8236ZM8236 5323.08V5387.26H8244V5323.08H8236ZM8236 5451.44V5515.62H8244V5451.44H8236ZM8236 5579.8V5643.98H8244V5579.8H8236ZM8236 5708.16V5772.34H8244V5708.16H8236ZM8236 5836.52V5900.7H8244V5836.52H8236ZM8236 5964.88V6029.06H8244V5964.88H8236ZM8236 6093.24V6157.42H8244V6093.24H8236ZM8236 6221.6V6285.78H8244V6221.6H8236ZM8236 6349.96V6414.14H8244V6349.96H8236ZM8236 6478.32V6542.5H8244V6478.32H8236ZM8236 6606.68V6670.86H8244V6606.68H8236ZM8236 6735.04V6799.22H8244V6735.04H8236ZM8236 6863.4V6927.58H8244V6863.4H8236ZM8236 6991.76V7055.94H8244V6991.76H8236ZM8236 7120.12V7184.3H8244V7120.12H8236ZM8236 7248.48V7312.66H8244V7248.48H8236ZM8236 7376.83V7441.01H8244V7376.83H8236ZM8236 7505.19V7569.37H8244V7505.19H8236ZM8236 7633.55V7697.73H8244V7633.55H8236ZM8236 7761.91V7794H8244V7761.91H8236ZM8236 7794C8236 7807.02 8233.41 7819.43 8228.72 7830.75L8236.11 7833.81C8241.19 7821.54 8244 7808.09 8244 7794H8236ZM8176.75 7882.72C8165.43 7887.41 8153.02 7890 8140 7890V7898C8154.09 7898 8167.54 7895.19 8179.81 7890.11L8176.75 7882.72ZM8140 7890H8107.91V7898H8140V7890ZM8043.72 7890H7979.53V7898H8043.72V7890ZM7915.35 7890H7851.16V7898H7915.35V7890ZM7786.97 7890H7722.79V7898H7786.97V7890ZM7658.6 7890H7594.41V7898H7658.6V7890ZM7530.23 7890H7466.04V7898H7530.23V7890ZM7401.85 7890H7337.67V7898H7401.85V7890ZM7273.48 7890H7209.29V7898H7273.48V7890ZM7145.11 7890H7080.92V7898H7145.11V7890ZM7016.73 7890H6952.55V7898H7016.73V7890ZM6888.36 7890H6824.17V7898H6888.36V7890ZM6759.99 7890H6695.8V7898H6759.99V7890ZM6631.61 7890H6567.43V7898H6631.61V7890ZM6503.24 7890H6439.05V7898H6503.24V7890ZM6374.87 7890H6310.68V7898H6374.87V7890ZM6246.49 7890H6182.31V7898H6246.49V7890ZM6118.12 7890H6053.93V7898H6118.12V7890ZM5989.75 7890H5925.56V7898H5989.75V7890ZM5861.37 7890H5797.19V7898H5861.37V7890ZM5733 7890H5668.81V7898H5733V7890ZM5604.63 7890H5540.44V7898H5604.63V7890ZM5476.25 7890H5412.07V7898H5476.25V7890ZM5347.88 7890H5283.69V7898H5347.88V7890ZM5219.51 7890H5155.32V7898H5219.51V7890ZM5091.13 7890H5026.95V7898H5091.13V7890ZM4962.76 7890H4898.57V7898H4962.76V7890ZM4834.38 7890H4770.2V7898H4834.38V7890ZM4706.01 7890H4641.82V7898H4706.01V7890ZM4577.64 7890H4513.45V7898H4577.64V7890ZM4449.26 7890H4385.08V7898H4449.26V7890ZM4320.89 7890H4256.7V7898H4320.89V7890ZM4192.52 7890H4128.33V7898H4192.52V7890ZM4064.14 7890H3999.96V7898H4064.14V7890ZM3935.77 7890H3871.58V7898H3935.77V7890ZM3807.4 7890H3743.21V7898H3807.4V7890ZM3679.02 7890H3614.84V7898H3679.02V7890ZM3550.65 7890H3486.46V7898H3550.65V7890ZM3422.28 7890H3358.09V7898H3422.28V7890ZM3293.91 7890H3229.72V7898H3293.91V7890ZM3165.53 7890H3101.35V7898H3165.53V7890ZM3037.16 7890H2972.97V7898H3037.16V7890ZM2908.79 7890H2844.6V7898H2908.79V7890ZM2780.41 7890H2716.23V7898H2780.41V7890ZM2652.04 7890H2587.85V7898H2652.04V7890ZM2523.67 7890H2459.48V7898H2523.67V7890ZM2395.29 7890H2331.11V7898H2395.29V7890ZM2266.92 7890H2202.73V7898H2266.92V7890ZM2138.55 7890H2074.36V7898H2138.55V7890ZM2010.17 7890H1945.99V7898H2010.17V7890ZM1881.8 7890H1817.62V7898H1881.8V7890ZM1753.43 7890H1689.24V7898H1753.43V7890ZM1625.06 7890H1560.87V7898H1625.06V7890ZM1496.68 7890H1432.5V7898H1496.68V7890ZM1368.31 7890H1304.12V7898H1368.31V7890ZM1239.94 7890H1175.75V7898H1239.94V7890ZM1111.56 7890H1047.38V7898H1111.56V7890ZM983.19 7890H919.004V7898H983.19V7890ZM854.817 7890H790.631V7898H854.817V7890ZM726.444 7890H662.257V7898H726.444V7890ZM598.071 7890H533.885V7898H598.071V7890ZM469.698 7890H405.512V7898H469.698V7890ZM341.325 7890H277.138V7898H341.325V7890ZM212.952 7890H148.766V7898H212.952V7890ZM84.5791 7890H20.3926V7898H84.5791V7890ZM-43.7941 7890H-107.981V7898H-43.7941V7890ZM-172.167 7890H-236.354V7898H-172.167V7890ZM-300.54 7890H-364.727V7898H-300.54V7890ZM-428.913 7890H-493.1V7898H-428.913V7890ZM-557.286 7890H-621.473V7898H-557.286V7890ZM-685.66 7890H-749.846V7898H-685.66V7890ZM-814.032 7890H-878.219V7898H-814.032V7890ZM-942.405 7890H-1006.59V7898H-942.405V7890ZM-1070.78 7890H-1134.97V7898H-1070.78V7890ZM-1199.15 7890H-1263.34V7898H-1199.15V7890ZM-1327.52 7890H-1391.71V7898H-1327.52V7890ZM-1455.9 7890H-1488V7898H-1455.9V7890Z" fill="white"/>
<g id="Landing - desktop" clip-path="url(#clip0_0_1)">
<rect width="1440" height="3106" transform="translate(-670 -866)" fill="#F4F5F7"/>
<g id="Group 427318202">
<rect id="Rectangle 339" width="100" height="6" rx="3" fill="#EBEBEB"/>
<rect id="Rectangle 340" x="25" width="37.5" height="6" rx="3" fill="#FFC700"/>
</g>
</g>
</g>
<defs>
<clipPath id="clip0_0_1">
<rect width="1440" height="3106" fill="white" transform="translate(-670 -866)"/>
</clipPath>
</defs>
</svg>
