<svg width="16" height="16" viewBox="0 0 16 16" fill="none" xmlns="http://www.w3.org/2000/svg">
<path d="M1.33398 6.51844H14.6673M4.29695 1.33325V2.81473M11.7044 1.33325V2.81473M3.70435 14.6666H12.2969C13.1267 14.6666 13.5415 14.6666 13.8584 14.5051C14.1372 14.3631 14.3638 14.1364 14.5058 13.8577C14.6673 13.5408 14.6673 13.1259 14.6673 12.2962V5.1851C14.6673 4.35539 14.6673 3.94054 14.5058 3.62364C14.3638 3.34487 14.1372 3.11824 13.8584 2.97621C13.5415 2.81473 13.1267 2.81473 12.2969 2.81473H3.70435C2.87465 2.81473 2.45979 2.81473 2.14289 2.97621C1.86413 3.11824 1.63749 3.34487 1.49546 3.62364C1.33398 3.94054 1.33398 4.35539 1.33398 5.1851V12.2962C1.33398 13.1259 1.33398 13.5408 1.49546 13.8577C1.63749 14.1364 1.86413 14.3631 2.14289 14.5051C2.45979 14.6666 2.87464 14.6666 3.70435 14.6666Z" stroke="#AAAAAA" stroke-width="1.3" stroke-linecap="round" stroke-linejoin="round"/>
</svg>
