<svg width="18" height="14" viewBox="0 0 18 14" fill="none" xmlns="http://www.w3.org/2000/svg">
<path d="M5.66797 11.1667H12.3346M5.66797 11.1667C5.66797 12.0872 4.92178 12.8334 4.0013 12.8334C3.08083 12.8334 2.33464 12.0872 2.33464 11.1667M5.66797 11.1667C5.66797 10.2462 4.92178 9.50008 4.0013 9.50008C3.08083 9.50008 2.33464 10.2462 2.33464 11.1667M12.3346 11.1667C12.3346 12.0872 13.0808 12.8334 14.0013 12.8334C14.9218 12.8334 15.668 12.0872 15.668 11.1667M12.3346 11.1667C12.3346 10.2462 13.0808 9.50008 14.0013 9.50008C14.9218 9.50008 15.668 10.2462 15.668 11.1667M2.33464 11.1667H2.0013C1.53459 11.1667 1.30124 11.1667 1.12298 11.0759C0.966177 10.996 0.838694 10.8686 0.758794 10.7117C0.667969 10.5335 0.667969 10.3002 0.667969 9.83341V8.83341C0.667969 7.9 0.667969 7.43325 0.849627 7.07675C1.00941 6.76316 1.26438 6.50816 1.57799 6.34841C1.9345 6.16675 2.40122 6.16675 3.33464 6.16675H13.3346C13.954 6.16675 14.2636 6.16675 14.5227 6.20775C15.9491 6.43366 17.0677 7.55233 17.2936 8.97866C17.3346 9.23775 17.3346 9.54741 17.3346 10.1667C17.3346 10.3216 17.3346 10.399 17.3244 10.4637C17.2679 10.8203 16.9882 11.1 16.6316 11.1565C16.5669 11.1667 16.4895 11.1667 16.3346 11.1667H15.668M7.33464 1.16675V6.16675M2.33464 6.16675L2.6109 4.50915C2.80881 3.32169 2.90777 2.72796 3.20405 2.28241C3.46523 1.88966 3.83218 1.57881 4.26252 1.38576C4.75072 1.16675 5.35264 1.16675 6.55648 1.16675H9.36055C10.1432 1.16675 10.5346 1.16675 10.8898 1.27462C11.2043 1.37013 11.4968 1.5267 11.7507 1.73538C12.0376 1.97111 12.2546 2.29672 12.6888 2.94795L14.8346 6.16675" stroke="#AAAAAA" stroke-width="1.3" stroke-linecap="round" stroke-linejoin="round"/>
</svg>
