<svg width="20" height="20" viewBox="0 0 20 20" fill="none" xmlns="http://www.w3.org/2000/svg">
<path d="M5.27183 10.652H7.46413V19.6774C7.46413 19.8556 7.60853 20 7.78673 20H11.5039C11.6821 20 11.8264 19.8556 11.8264 19.6774V10.6945H14.3467C14.5106 10.6945 14.6485 10.5716 14.6672 10.4088L15.05 7.0861C15.0605 6.9947 15.0315 6.90315 14.9703 6.83455C14.9091 6.7659 14.8215 6.7266 14.7296 6.7266H11.8266V4.64375C11.8266 4.0159 12.1646 3.6975 12.8315 3.6975C12.9266 3.6975 14.7296 3.6975 14.7296 3.6975C14.9078 3.6975 15.0521 3.55304 15.0521 3.37492V0.324961C15.0521 0.146758 14.9078 0.00238281 14.7296 0.00238281H12.1137C12.0953 0.00148437 12.0543 0 11.9939 0C11.5401 0 9.96248 0.0891016 8.71623 1.23555C7.33548 2.50602 7.52743 4.02715 7.57328 4.2909V6.7265H5.27178C5.09358 6.7265 4.94922 6.8709 4.94922 7.0491V10.3294C4.94926 10.5076 5.09363 10.652 5.27183 10.652Z" fill="url(#paint0_linear_305_293)"/>
<defs>
<linearGradient id="paint0_linear_305_293" x1="10.0007" y1="0" x2="10.0007" y2="20" gradientUnits="userSpaceOnUse">
<stop stop-color="#4080D9"/>
<stop offset="1" stop-color="#385C8E"/>
</linearGradient>
</defs>
</svg>
