<svg width="10" height="18" viewBox="0 0 10 18" fill="none" xmlns="http://www.w3.org/2000/svg">
<path d="M0.745433 9.58679H2.71851V17.7097C2.71851 17.8701 2.84845 18 3.00883 18H6.35426C6.51464 18 6.64458 17.8701 6.64458 17.7097V9.62508H8.91283C9.06031 9.62508 9.18441 9.51441 9.20125 9.36791L9.54575 6.37748C9.5552 6.29522 9.52915 6.21281 9.4741 6.15108C9.41901 6.08931 9.34015 6.05394 9.25739 6.05394H6.64472V4.17937C6.64472 3.61431 6.94896 3.32775 7.54915 3.32775C7.63469 3.32775 9.25739 3.32775 9.25739 3.32775C9.41778 3.32775 9.54771 3.19774 9.54771 3.03743V0.292465C9.54771 0.132082 9.41778 0.00214453 9.25739 0.00214453H6.90316C6.88656 0.00133594 6.84968 0 6.79533 0C6.38685 0 4.967 0.0801913 3.84541 1.11199C2.6027 2.25541 2.77546 3.62443 2.81673 3.86181V6.05387H0.745399C0.585016 6.05387 0.455078 6.18381 0.455078 6.34419V9.29644C0.455113 9.45679 0.585051 9.58679 0.745433 9.58679Z" fill="url(#paint0_linear_98_449)"/>
<defs>
<linearGradient id="paint0_linear_98_449" x1="5.0014" y1="0" x2="5.0014" y2="18" gradientUnits="userSpaceOnUse">
<stop stop-color="#4080D9"/>
<stop offset="1" stop-color="#385C8E"/>
</linearGradient>
</defs>
</svg>
