<svg width="12" height="13" viewBox="0 0 12 13" fill="none" xmlns="http://www.w3.org/2000/svg">
<path d="M11.0094 8.91015L9.44435 5.25013C9.15935 4.58013 8.73435 4.20013 8.24935 4.17513C7.76935 4.15013 7.30435 4.48513 6.94935 5.12513L5.99935 6.83015C5.79935 7.19015 5.51435 7.40515 5.20435 7.43015C4.88934 7.46015 4.57434 7.29515 4.31934 6.97015L4.20934 6.83015C3.85434 6.38515 3.41434 6.17015 2.96434 6.21515C2.51434 6.26015 2.12934 6.57015 1.87434 7.07515L1.00934 8.80015C0.699336 9.42515 0.729336 10.1501 1.09434 10.7401C1.45934 11.3301 2.09434 11.6851 2.78934 11.6851H9.16935C9.83935 11.6851 10.4644 11.3501 10.8344 10.7901C11.2144 10.2301 11.2744 9.52515 11.0094 8.91015Z" fill="white"/>
<path d="M3.48492 4.69055C4.41829 4.69055 5.1749 3.93391 5.1749 3.00055C5.1749 2.06719 4.41829 1.31055 3.48492 1.31055C2.55156 1.31055 1.79492 2.06719 1.79492 3.00055C1.79492 3.93391 2.55156 4.69055 3.48492 4.69055Z" fill="white"/>
</svg>
