<svg width="20" height="20" viewBox="0 0 20 20" fill="none" xmlns="http://www.w3.org/2000/svg">
<path d="M13.3333 18.3334V6.66675C13.3333 4.30972 13.3333 3.13121 12.6011 2.39898C11.8688 1.66675 10.6903 1.66675 8.33333 1.66675H7.5C5.14297 1.66675 3.96447 1.66675 3.23223 2.39898C2.5 3.13121 2.5 4.30972 2.5 6.66675V18.3334" stroke="#AAAAAA" stroke-width="1.3"/>
<path d="M9.16667 5H6.66667C5.88099 5 5.48816 5 5.24408 5.24408C5 5.48816 5 5.88099 5 6.66667C5 7.45234 5 7.84518 5.24408 8.08926C5.48816 8.33333 5.88099 8.33333 6.66667 8.33333H9.16667C9.95233 8.33333 10.3452 8.33333 10.5892 8.08926C10.8333 7.84518 10.8333 7.45234 10.8333 6.66667C10.8333 5.88099 10.8333 5.48816 10.5892 5.24408C10.3452 5 9.95233 5 9.16667 5Z" stroke="#AAAAAA" stroke-width="1.3"/>
<path d="M5.83203 14.1667H9.9987" stroke="#AAAAAA" stroke-width="1.3" stroke-linecap="round"/>
<path d="M14.168 18.3333H1.66797" stroke="#AAAAAA" stroke-width="1.3" stroke-linecap="round"/>
<path d="M16.2487 3.33325L17.2763 4.15531C17.3911 4.24719 17.4485 4.29314 17.5008 4.33996C17.9934 4.78164 18.291 5.40064 18.3281 6.06129C18.332 6.13133 18.332 6.20487 18.332 6.35195V15.4166C18.332 16.1069 17.7724 16.6666 17.082 16.6666C16.3917 16.6666 15.832 16.1069 15.832 15.4166V15.3571C15.832 14.6996 15.299 14.1666 14.6415 14.1666H13.332" stroke="#AAAAAA" stroke-width="1.3" stroke-linecap="round"/>
<path d="M18.332 6.66675H17.082C16.3917 6.66675 15.832 7.22639 15.832 7.91675V9.9325C15.832 10.4705 16.1763 10.9482 16.6868 11.1183L18.332 11.6667" stroke="#AAAAAA" stroke-width="1.3" stroke-linecap="round"/>
</svg>
