<svg width="20" height="20" viewBox="0 0 20 20" fill="none" xmlns="http://www.w3.org/2000/svg">
<path d="M12.5 10C12.5 11.3807 11.3807 12.5 10 12.5C8.61925 12.5 7.5 11.3807 7.5 10C7.5 8.61925 8.61925 7.5 10 7.5C11.3807 7.5 12.5 8.61925 12.5 10Z" stroke="#AAAAAA" stroke-width="1.3" stroke-linecap="round" stroke-linejoin="round"/>
<path d="M10.8369 1.72235C10.6464 1.66675 10.4307 1.66675 9.99935 1.66675C9.56796 1.66675 9.35231 1.66675 9.16176 1.72235C8.88287 1.80373 8.63648 1.97053 8.45731 2.19926C8.3349 2.35553 8.25481 2.55579 8.09464 2.9563C7.86434 3.53204 7.22521 3.82852 6.63691 3.63249L6.10841 3.45639C5.73352 3.33142 5.54606 3.26893 5.36227 3.25823C5.0923 3.2425 4.82361 3.30593 4.58917 3.44073C4.42958 3.5325 4.28987 3.67222 4.01043 3.95166C3.71344 4.24865 3.56494 4.39714 3.47061 4.56665C3.33201 4.81567 3.27338 5.10132 3.30267 5.38481C3.32261 5.57777 3.4006 5.77276 3.55659 6.16273C3.80088 6.77344 3.56587 7.47117 3.00187 7.80965L2.74491 7.96385C2.35149 8.1999 2.15477 8.31795 2.01189 8.48045C1.88544 8.62425 1.7901 8.79267 1.73184 8.97508C1.66602 9.18119 1.66602 9.41286 1.66602 9.87628C1.66602 10.425 1.66602 10.6992 1.75363 10.9342C1.83104 11.1417 1.95696 11.3276 2.12087 11.4766C2.30637 11.6451 2.55856 11.746 3.06292 11.9478C3.57837 12.1539 3.84376 12.7261 3.6682 13.2528L3.46899 13.8505C3.33101 14.2643 3.26201 14.4714 3.25574 14.6747C3.24819 14.9192 3.30536 15.1614 3.42145 15.3767C3.51801 15.5558 3.67229 15.7101 3.98083 16.0186C4.28938 16.3271 4.44365 16.4814 4.62273 16.578C4.83805 16.6941 5.08021 16.7513 5.32472 16.7437C5.52807 16.7374 5.73505 16.6684 6.14902 16.5305L6.63696 16.3678C7.22521 16.1717 7.86435 16.4681 8.09464 17.0439C8.25481 17.4443 8.3349 17.6446 8.45731 17.8009C8.63648 18.0296 8.88287 18.1965 9.16176 18.2779C9.35231 18.3334 9.56796 18.3334 9.99935 18.3334C10.4307 18.3334 10.6464 18.3334 10.8369 18.2779C11.1158 18.1965 11.3622 18.0296 11.5414 17.8009C11.6638 17.6446 11.7439 17.4443 11.9041 17.0439C12.1343 16.4681 12.7735 16.1717 13.3617 16.368L13.8493 16.5305C14.2632 16.6685 14.4703 16.7375 14.6736 16.7438C14.9181 16.7513 15.1603 16.6942 15.3756 16.578C15.5546 16.4815 15.709 16.3272 16.0175 16.0187C16.326 15.7102 16.4803 15.5558 16.5768 15.3767C16.693 15.1615 16.7501 14.9192 16.7426 14.6748C16.7363 14.4715 16.6673 14.2644 16.5293 13.8505L16.3303 13.2532C16.1546 12.7264 16.4201 12.154 16.9357 11.9478C17.4401 11.746 17.6923 11.6451 17.8779 11.4766C18.0418 11.3276 18.1677 11.1417 18.2451 10.9342C18.3327 10.6992 18.3327 10.425 18.3327 9.87628C18.3327 9.41286 18.3327 9.18119 18.2668 8.97508C18.2086 8.79267 18.1132 8.62425 17.9868 8.48045C17.8439 8.31795 17.6472 8.1999 17.2538 7.96385L16.9965 7.80949C16.4325 7.47107 16.1974 6.77336 16.4418 6.16266C16.5977 5.7727 16.6757 5.5777 16.6956 5.38474C16.7249 5.10125 16.6663 4.81561 16.5277 4.56657C16.4333 4.39707 16.2849 4.24857 15.9879 3.95158C15.7084 3.67216 15.5687 3.53243 15.4092 3.44066C15.1747 3.30586 14.906 3.24243 14.636 3.25816C14.4522 3.26887 14.2648 3.33135 13.8899 3.45631L13.3618 3.63237C12.7735 3.82845 12.1343 3.53203 11.9041 2.9563C11.7439 2.55579 11.6638 2.35553 11.5414 2.19926C11.3622 1.97053 11.1158 1.80373 10.8369 1.72235Z" stroke="#AAAAAA" stroke-width="1.3" stroke-linecap="round" stroke-linejoin="round"/>
</svg>
