<svg width="20" height="20" viewBox="0 0 20 20" fill="none" xmlns="http://www.w3.org/2000/svg">
<g clip-path="url(#clip0_264_964)">
<path d="M12.1297 0.332577C11.4623 0.120937 10.7342 0 9.991 0C7.85232 0 5.92599 0.967498 4.63672 2.49433L7.94333 5.26077L12.1297 0.332577Z" fill="#1A73E8"/>
<path d="M4.63814 2.49438C3.62189 3.70376 3 5.27594 3 6.96906C3 8.28426 3.25785 9.34246 3.69772 10.2948L7.94475 5.26082L4.63814 2.49438Z" fill="#EA4335"/>
<path d="M10.0082 4.30833C11.4946 4.30833 12.6929 5.50259 12.6929 6.98407C12.6929 7.63411 12.4502 8.23879 12.0558 8.70742C12.0558 8.70742 14.1642 6.19798 16.227 3.76411C15.3776 2.13146 13.9063 0.891854 12.1317 0.33252L7.94531 5.26071C8.44585 4.68626 9.17392 4.30833 10.0082 4.30833Z" fill="#4285F4"/>
<path d="M10.0071 9.64472C8.52067 9.64472 7.3224 8.45046 7.3224 6.96898C7.3224 6.31894 7.54992 5.71426 7.94429 5.26074L3.69727 10.2948C4.42533 11.8972 5.63876 13.1973 6.88253 14.8148L12.0548 8.69234C11.5543 9.28191 10.8262 9.64472 10.0071 9.64472Z" fill="#FBBC04"/>
<path d="M11.9641 16.5079C14.2999 12.8647 17.015 11.2169 17.015 6.98411C17.015 5.82009 16.7268 4.73166 16.2263 3.76416L6.88281 14.8148C7.27718 15.3288 7.68671 15.9184 8.08108 16.523C9.50686 18.715 9.1125 20.0151 10.0226 20.0151C10.9326 20.0151 10.5383 18.6999 11.9641 16.5079Z" fill="#34A853"/>
</g>
<defs>
<clipPath id="clip0_264_964">
<rect width="14" height="20" fill="white" transform="translate(3)"/>
</clipPath>
</defs>
</svg>
