<svg width="22" height="22" viewBox="0 0 22 22" fill="none" xmlns="http://www.w3.org/2000/svg">
<rect width="22" height="22" fill="#1E1E1E"/>
<g id="Header possibility">
<path d="M-2259 -517C-2259 -518.105 -2258.1 -519 -2257 -519H885C886.104 -519 887 -518.105 887 -517V2534C887 2535.1 886.104 2536 885 2536H-2257C-2258.1 2536 -2259 2535.1 -2259 2534V-517Z" fill="#404040"/>
<path d="M-2257 2532C-2255.9 2532 -2255 2532.9 -2255 2534H-2263C-2263 2537.31 -2260.31 2540 -2257 2540V2532ZM-2255 2534V2502.22H-2263V2534H-2255ZM-2255 2438.66V2375.09H-2263V2438.66H-2255ZM-2255 2311.53V2247.97H-2263V2311.53H-2255ZM-2255 2184.41V2120.84H-2263V2184.41H-2255ZM-2255 2057.28V1993.72H-2263V2057.28H-2255ZM-2255 1930.16V1866.59H-2263V1930.16H-2255ZM-2255 1803.03V1739.47H-2263V1803.03H-2255ZM-2255 1675.91V1612.34H-2263V1675.91H-2255ZM-2255 1548.78V1485.22H-2263V1548.78H-2255ZM-2255 1421.66V1358.09H-2263V1421.66H-2255ZM-2255 1294.53V1230.97H-2263V1294.53H-2255ZM-2255 1167.41V1103.84H-2263V1167.41H-2255ZM-2255 1040.28V976.719H-2263V1040.28H-2255ZM-2255 913.156V849.594H-2263V913.156H-2255ZM-2255 786.031V722.469H-2263V786.031H-2255ZM-2255 658.906V595.344H-2263V658.906H-2255ZM-2255 531.781V468.219H-2263V531.781H-2255ZM-2255 404.656V341.094H-2263V404.656H-2255ZM-2255 277.531V213.969H-2263V277.531H-2255ZM-2255 150.406V86.8438H-2263V150.406H-2255ZM-2255 23.2811V-40.2813H-2263V23.2811H-2255ZM-2255 -103.844V-167.406H-2263V-103.844H-2255ZM-2255 -230.969V-294.531H-2263V-230.969H-2255ZM-2255 -358.094V-421.656H-2263V-358.094H-2255ZM-2255 -485.219V-517H-2263V-485.219H-2255ZM-2255 -517C-2255 -515.895 -2255.9 -515 -2257 -515V-523C-2260.31 -523 -2263 -520.314 -2263 -517H-2255ZM-2257 -515H-2225.58V-523H-2257V-515ZM-2162.74 -515H-2099.9V-523H-2162.74V-515ZM-2037.06 -515H-1974.22V-523H-2037.06V-515ZM-1911.38 -515H-1848.54V-523H-1911.38V-515ZM-1785.7 -515H-1722.86V-523H-1785.7V-515ZM-1660.02 -515H-1597.18V-523H-1660.02V-515ZM-1534.34 -515H-1471.5V-523H-1534.34V-515ZM-1408.66 -515H-1345.82V-523H-1408.66V-515ZM-1282.98 -515H-1220.14V-523H-1282.98V-515ZM-1157.3 -515H-1094.46V-523H-1157.3V-515ZM-1031.62 -515H-968.78V-523H-1031.62V-515ZM-905.94 -515H-843.1V-523H-905.94V-515ZM-780.26 -515H-717.42V-523H-780.26V-515ZM-654.58 -515H-591.74V-523H-654.58V-515ZM-528.9 -515H-466.06V-523H-528.9V-515ZM-403.22 -515H-340.38V-523H-403.22V-515ZM-277.54 -515H-214.7V-523H-277.54V-515ZM-151.86 -515H-89.0203V-523H-151.86V-515ZM-26.1802 -515H36.6599V-523H-26.1802V-515ZM99.5 -515H162.34V-523H99.5V-515ZM225.18 -515H288.02V-523H225.18V-515ZM350.86 -515H413.7V-523H350.86V-515ZM476.541 -515H539.381V-523H476.541V-515ZM602.221 -515H665.061V-523H602.221V-515ZM727.901 -515H790.741V-523H727.901V-515ZM853.581 -515H885V-523H853.581V-515ZM885 -515C883.896 -515 883 -515.895 883 -517H891C891 -520.314 888.313 -523 885 -523V-515ZM883 -517V-485.219H891V-517H883ZM883 -421.656V-358.094H891V-421.656H883ZM883 -294.531V-230.969H891V-294.531H883ZM883 -167.406V-103.844H891V-167.406H883ZM883 -40.2812V23.2812H891V-40.2812H883ZM883 86.8438V150.406H891V86.8438H883ZM883 213.969V277.531H891V213.969H883ZM883 341.094V404.656H891V341.094H883ZM883 468.219V531.781H891V468.219H883ZM883 595.344V658.906H891V595.344H883ZM883 722.469V786.031H891V722.469H883ZM883 849.594V913.156H891V849.594H883ZM883 976.719V1040.28H891V976.719H883ZM883 1103.84V1167.41H891V1103.84H883ZM883 1230.97V1294.53H891V1230.97H883ZM883 1358.09V1421.66H891V1358.09H883ZM883 1485.22V1548.78H891V1485.22H883ZM883 1612.34V1675.91H891V1612.34H883ZM883 1739.47V1803.03H891V1739.47H883ZM883 1866.59V1930.16H891V1866.59H883ZM883 1993.72V2057.28H891V1993.72H883ZM883 2120.84V2184.41H891V2120.84H883ZM883 2247.97V2311.53H891V2247.97H883ZM883 2375.09V2438.66H891V2375.09H883ZM883 2502.22V2534H891V2502.22H883ZM883 2534C883 2532.9 883.896 2532 885 2532V2540C888.313 2540 891 2537.31 891 2534H883ZM885 2532H853.58V2540H885V2532ZM790.74 2532H727.9V2540H790.74V2532ZM665.06 2532H602.22V2540H665.06V2532ZM539.38 2532H476.54V2540H539.38V2532ZM413.7 2532H350.86V2540H413.7V2532ZM288.02 2532H225.18V2540H288.02V2532ZM162.34 2532H99.5V2540H162.34V2532ZM36.6599 2532H-26.1802V2540H36.6599V2532ZM-89.0203 2532H-151.86V2540H-89.0203V2532ZM-214.7 2532H-277.54V2540H-214.7V2532ZM-340.38 2532H-403.22V2540H-340.38V2532ZM-466.06 2532H-528.9V2540H-466.06V2532ZM-591.74 2532H-654.58V2540H-591.74V2532ZM-717.42 2532H-780.26V2540H-717.42V2532ZM-843.1 2532H-905.94V2540H-843.1V2532ZM-968.78 2532H-1031.62V2540H-968.78V2532ZM-1094.46 2532H-1157.3V2540H-1094.46V2532ZM-1220.14 2532H-1282.98V2540H-1220.14V2532ZM-1345.82 2532H-1408.66V2540H-1345.82V2532ZM-1471.5 2532H-1534.34V2540H-1471.5V2532ZM-1597.18 2532H-1660.02V2540H-1597.18V2532ZM-1722.86 2532H-1785.7V2540H-1722.86V2532ZM-1848.54 2532H-1911.38V2540H-1848.54V2532ZM-1974.22 2532H-2037.06V2540H-1974.22V2532ZM-2099.9 2532H-2162.74V2540H-2099.9V2532ZM-2225.58 2532H-2257V2540H-2225.58V2532Z" fill="white"/>
<g id="Landing user login -  responsive">
<rect width="390" height="340" transform="translate(-348 -15)" fill="#F4F5F7"/>
<g id="Frame 37">
<rect width="390" height="100" transform="translate(-348 -15)" fill="white"/>
</g>
<g id="Menu">
<path id="Union" fill-rule="evenodd" clip-rule="evenodd" d="M11.63 6.5625C11.1122 6.5625 10.6925 6.14277 10.6925 5.625C10.6925 5.10723 11.1122 4.6875 11.63 4.6875H18.25C18.7678 4.6875 19.1875 5.10723 19.1875 5.625C19.1875 6.14277 18.7678 6.5625 18.25 6.5625H11.63ZM2.31164 11.25C2.31164 11.7678 2.73137 12.1875 3.24914 12.1875H18.2491C18.7669 12.1875 19.1866 11.7678 19.1866 11.25C19.1866 10.7322 18.7669 10.3125 18.2491 10.3125H3.24914C2.73137 10.3125 2.31164 10.7322 2.31164 11.25ZM6.9414 16.875C6.9414 17.3928 7.36114 17.8125 7.8789 17.8125H18.2489C18.7667 17.8125 19.1864 17.3928 19.1864 16.875C19.1864 16.3572 18.7667 15.9375 18.2489 15.9375H7.8789C7.36114 15.9375 6.9414 16.3572 6.9414 16.875Z" fill="#333333"/>
</g>
</g>
</g>
</svg>
