<svg width="18" height="16" viewBox="0 0 18 16" fill="none" xmlns="http://www.w3.org/2000/svg">
<path d="M8.52451 2.5025L9 3.01267L9.4755 2.5025C11.3364 0.505911 13.2894 0.32737 14.7412 1.0127C16.2402 1.72027 17.35 3.41097 17.35 5.43913C17.35 7.50287 16.5314 9.0902 15.3674 10.4437C14.4088 11.5585 13.2482 12.4825 12.1192 13.3813C11.8513 13.5945 11.5853 13.8064 11.3241 14.019C10.8508 14.4043 10.4271 14.7437 10.0185 14.9903C9.6091 15.2373 9.27964 15.35 9 15.35C8.72037 15.35 8.3909 15.2373 7.98152 14.9903C7.57289 14.7437 7.14923 14.4043 6.67593 14.019C6.41475 13.8064 6.14867 13.5945 5.88082 13.3813C4.75181 12.4825 3.59123 11.5585 2.63258 10.4437C1.46859 9.0902 0.65 7.50287 0.65 5.43913C0.65 3.41097 1.75983 1.72027 3.25877 1.0127C4.7106 0.327371 6.66361 0.50591 8.52451 2.5025Z" stroke="#AAAAAA" stroke-width="1.3"/>
</svg>
