<svg width="24" height="21" viewBox="0 0 24 21" fill="none" xmlns="http://www.w3.org/2000/svg">
<path d="M11.6404 3.76401L12.0007 4.1383L12.3609 3.76401C14.8578 1.16979 17.5515 0.88641 19.5948 1.82038C21.6695 2.76875 23.1673 5.01018 23.1673 7.65983C23.1673 10.3405 22.0654 12.4014 20.5197 14.1419C19.2544 15.5668 17.7188 16.7503 16.2534 17.8798C15.9088 18.1453 15.5682 18.4079 15.2358 18.6699C14.6255 19.151 14.0579 19.5923 13.504 19.916C12.9499 20.2397 12.4571 20.4165 12.0007 20.4165C11.5442 20.4165 11.0514 20.2397 10.4973 19.916C9.94341 19.5923 9.3758 19.151 8.76555 18.6699C8.43317 18.4079 8.09248 18.1453 7.74792 17.8798C6.28249 16.7503 4.74693 15.5667 3.48159 14.1419C1.93589 12.4014 0.833984 10.3405 0.833984 7.65983C0.833984 5.01018 2.33175 2.76875 4.4065 1.82038C6.44974 0.88641 9.14347 1.16979 11.6404 3.76401Z" stroke="#FFF7E1"/>
</svg>
