<svg width="16" height="16" viewBox="0 0 16 16" fill="none" xmlns="http://www.w3.org/2000/svg">
<path d="M7.51293 2.86104L8 3.41221L8.48707 2.86104C10.1276 1.00459 11.8186 0.862061 13.0602 1.48022C14.3612 2.12788 15.35 3.69383 15.35 5.59918C15.35 9.11796 12.9576 11.1333 10.6893 13.044C10.4598 13.2373 10.2316 13.4296 10.0072 13.6222C9.58565 13.9842 9.21284 14.2989 8.85483 14.5268C8.49506 14.7557 8.2204 14.85 8 14.85C7.7796 14.85 7.50495 14.7557 7.14517 14.5268C6.78718 14.2989 6.41436 13.9842 5.99282 13.6222C5.76845 13.4296 5.5402 13.2373 5.31068 13.044C3.04244 11.1333 0.65 9.11795 0.65 5.59918C0.65 3.69382 1.63884 2.12788 2.93974 1.48022C4.18137 0.862062 5.87237 1.00458 7.51293 2.86104Z" stroke="#333333" stroke-width="1.3"/>
</svg>
