<svg width="20" height="20" viewBox="0 0 20 20" fill="none" xmlns="http://www.w3.org/2000/svg">
<path fill-rule="evenodd" clip-rule="evenodd" d="M1.04102 10.4166C1.04102 5.47141 5.05417 1.45825 9.99935 1.45825C14.9445 1.45825 18.9577 5.47141 18.9577 10.4166C18.9577 12.8528 17.9809 15.0753 16.395 16.6881C16.153 16.9342 15.7573 16.9376 15.5111 16.6956C15.265 16.4535 15.2617 16.0578 15.5037 15.8117C16.8678 14.4245 17.7077 12.5137 17.7077 10.4166C17.7077 6.16176 14.2542 2.70825 9.99935 2.70825C5.74453 2.70825 2.29102 6.16176 2.29102 10.4166C2.29102 12.5138 3.12279 14.4093 4.48077 15.8059C4.72141 16.0533 4.71586 16.449 4.46839 16.6897C4.22092 16.9303 3.82523 16.9248 3.58459 16.6773C2.00924 15.0572 1.04102 12.8527 1.04102 10.4166Z" fill="#AAAAAA"/>
<path fill-rule="evenodd" clip-rule="evenodd" d="M7.5 9.00958C7.5 7.71245 8.61597 6.6665 10.0001 6.6665C11.3842 6.6665 12.5 7.71251 12.5 9.00958C12.5 10.0332 11.782 10.5735 11.312 10.8745C11.1103 11.0051 10.9803 11.1078 10.8961 11.2136C10.8262 11.3016 10.7781 11.4032 10.7781 11.5665V11.7707C10.7781 12.1734 10.4297 12.4998 10.0001 12.4998C9.57036 12.4998 9.22203 12.1734 9.22203 11.7707V11.5665C9.22203 10.5196 9.95715 9.97901 10.4294 9.67343C10.4305 9.67272 10.4316 9.67202 10.4327 9.67132C10.6247 9.54838 10.7504 9.44802 10.831 9.346C10.8986 9.26059 10.944 9.16295 10.944 9.00958C10.944 8.51777 10.5247 8.12484 10.0001 8.12484C9.47538 8.12484 9.05605 8.51783 9.05605 9.00958C9.05605 9.41229 8.70772 9.73875 8.27802 9.73875C7.84833 9.73875 7.5 9.41229 7.5 9.00958Z" fill="#AAAAAA"/>
<path fill-rule="evenodd" clip-rule="evenodd" d="M9.16602 14.1666C9.16602 13.7063 9.53689 13.3333 9.99438 13.3333H10.0043C10.4618 13.3333 10.8327 13.7063 10.8327 14.1666C10.8327 14.6268 10.4618 14.9999 10.0043 14.9999H9.99438C9.53689 14.9999 9.16602 14.6268 9.16602 14.1666Z" fill="#AAAAAA"/>
</svg>
