<svg width="14" height="14" viewBox="0 0 14 14" fill="none" xmlns="http://www.w3.org/2000/svg">
<path d="M4.15516 9.11739C4.15516 9.11739 5.29294 10.545 6.99961 10.545C8.70628 10.545 9.84405 9.11739 9.84405 9.11739M0.599609 8.83188V7.06891C0.599609 6.24898 0.599609 5.83898 0.704889 5.46146C0.798152 5.12703 0.951417 4.81248 1.15716 4.53326C1.38942 4.21805 1.71182 3.96636 2.35661 3.46297L4.2055 2.01954C5.20482 1.23937 5.70446 0.849278 6.25621 0.699333C6.74304 0.567019 7.25618 0.567019 7.743 0.699333C8.29476 0.849278 8.79438 1.23937 9.79371 2.01954L11.6426 3.46297C12.2874 3.96636 12.6098 4.21805 12.842 4.53326C13.0478 4.81248 13.2011 5.12703 13.2943 5.46146C13.3996 5.83898 13.3996 6.24898 13.3996 7.06891V8.83188C13.3996 10.4309 13.3996 11.2304 13.0896 11.8411C12.8169 12.3784 12.3817 12.8152 11.8465 13.0889C11.238 13.4001 10.4415 13.4001 8.8485 13.4001H5.15072C3.55768 13.4001 2.76117 13.4001 2.1527 13.0889C1.61749 12.8152 1.18234 12.3784 0.909633 11.8411C0.599609 11.2304 0.599609 10.4309 0.599609 8.83188Z" stroke="#333333" stroke-linecap="round" stroke-linejoin="round"/>
</svg>
