<svg width="20" height="20" viewBox="0 0 20 20" fill="none" xmlns="http://www.w3.org/2000/svg">
<path d="M10.8889 10.8889L13.5556 6.44444M6.44444 6.44444H6.45333M10 4.66667H10.0089M15.3333 10H15.3422M4.66667 10H4.67556M11.7778 12.6667C11.7778 13.6485 10.9819 14.4444 10 14.4444C9.01813 14.4444 8.22222 13.6485 8.22222 12.6667C8.22222 11.6848 9.01813 10.8889 10 10.8889C10.9819 10.8889 11.7778 11.6848 11.7778 12.6667ZM18 10C18 14.4183 14.4183 18 10 18C5.58172 18 2 14.4183 2 10C2 5.58172 5.58172 2 10 2C14.4183 2 18 5.58172 18 10Z" stroke="#AAAAAA" stroke-width="1.3" stroke-linecap="round" stroke-linejoin="round"/>
</svg>
