<svg width="20" height="20" viewBox="0 0 20 20" fill="none" xmlns="http://www.w3.org/2000/svg">
<rect width="20" height="20" fill="#1E1E1E"/>
<g id="Header possibility">
<path d="M-806 -532C-806 -533.105 -805.105 -534 -804 -534H2338C2339.1 -534 2340 -533.105 2340 -532V2519C2340 2520.1 2339.1 2521 2338 2521H-804C-805.105 2521 -806 2520.1 -806 2519V-532Z" fill="#404040"/>
<path d="M-804 2517C-802.896 2517 -802 2517.9 -802 2519H-810C-810 2522.31 -807.314 2525 -804 2525V2517ZM-802 2519V2487.22H-810V2519H-802ZM-802 2423.66V2360.09H-810V2423.66H-802ZM-802 2296.53V2232.97H-810V2296.53H-802ZM-802 2169.41V2105.84H-810V2169.41H-802ZM-802 2042.28V1978.72H-810V2042.28H-802ZM-802 1915.16V1851.59H-810V1915.16H-802ZM-802 1788.03V1724.47H-810V1788.03H-802ZM-802 1660.91V1597.34H-810V1660.91H-802ZM-802 1533.78V1470.22H-810V1533.78H-802ZM-802 1406.66V1343.09H-810V1406.66H-802ZM-802 1279.53V1215.97H-810V1279.53H-802ZM-802 1152.41V1088.84H-810V1152.41H-802ZM-802 1025.28V961.719H-810V1025.28H-802ZM-802 898.156V834.594H-810V898.156H-802ZM-802 771.031V707.469H-810V771.031H-802ZM-802 643.906V580.344H-810V643.906H-802ZM-802 516.781V453.219H-810V516.781H-802ZM-802 389.656V326.094H-810V389.656H-802ZM-802 262.531V198.969H-810V262.531H-802ZM-802 135.406V71.8438H-810V135.406H-802ZM-802 8.28113V-55.2813H-810V8.28113H-802ZM-802 -118.844V-182.406H-810V-118.844H-802ZM-802 -245.969V-309.531H-810V-245.969H-802ZM-802 -373.094V-436.656H-810V-373.094H-802ZM-802 -500.219V-532H-810V-500.219H-802ZM-802 -532C-802 -530.895 -802.896 -530 -804 -530V-538C-807.313 -538 -810 -535.314 -810 -532H-802ZM-804 -530H-772.58V-538H-804V-530ZM-709.74 -530H-646.9V-538H-709.74V-530ZM-584.06 -530H-521.22V-538H-584.06V-530ZM-458.38 -530H-395.54V-538H-458.38V-530ZM-332.7 -530H-269.86V-538H-332.7V-530ZM-207.02 -530H-144.18V-538H-207.02V-530ZM-81.3399 -530H-18.4999V-538H-81.3399V-530ZM44.3401 -530H107.18V-538H44.3401V-530ZM170.02 -530H232.86V-538H170.02V-530ZM295.7 -530H358.54V-538H295.7V-530ZM421.38 -530H484.22V-538H421.38V-530ZM547.06 -530H609.9V-538H547.06V-530ZM672.74 -530H735.58V-538H672.74V-530ZM798.42 -530H861.26V-538H798.42V-530ZM924.1 -530H986.94V-538H924.1V-530ZM1049.78 -530H1112.62V-538H1049.78V-530ZM1175.46 -530H1238.3V-538H1175.46V-530ZM1301.14 -530H1363.98V-538H1301.14V-530ZM1426.82 -530H1489.66V-538H1426.82V-530ZM1552.5 -530H1615.34V-538H1552.5V-530ZM1678.18 -530H1741.02V-538H1678.18V-530ZM1803.86 -530H1866.7V-538H1803.86V-530ZM1929.54 -530H1992.38V-538H1929.54V-530ZM2055.22 -530H2118.06V-538H2055.22V-530ZM2180.9 -530H2243.74V-538H2180.9V-530ZM2306.58 -530H2338V-538H2306.58V-530ZM2338 -530C2336.9 -530 2336 -530.895 2336 -532H2344C2344 -535.314 2341.31 -538 2338 -538V-530ZM2336 -532V-500.219H2344V-532H2336ZM2336 -436.656V-373.094H2344V-436.656H2336ZM2336 -309.531V-245.969H2344V-309.531H2336ZM2336 -182.406V-118.844H2344V-182.406H2336ZM2336 -55.2812V8.28125H2344V-55.2812H2336ZM2336 71.8438V135.406H2344V71.8438H2336ZM2336 198.969V262.531H2344V198.969H2336ZM2336 326.094V389.656H2344V326.094H2336ZM2336 453.219V516.781H2344V453.219H2336ZM2336 580.344V643.906H2344V580.344H2336ZM2336 707.469V771.031H2344V707.469H2336ZM2336 834.594V898.156H2344V834.594H2336ZM2336 961.719V1025.28H2344V961.719H2336ZM2336 1088.84V1152.41H2344V1088.84H2336ZM2336 1215.97V1279.53H2344V1215.97H2336ZM2336 1343.09V1406.66H2344V1343.09H2336ZM2336 1470.22V1533.78H2344V1470.22H2336ZM2336 1597.34V1660.91H2344V1597.34H2336ZM2336 1724.47V1788.03H2344V1724.47H2336ZM2336 1851.59V1915.16H2344V1851.59H2336ZM2336 1978.72V2042.28H2344V1978.72H2336ZM2336 2105.84V2169.41H2344V2105.84H2336ZM2336 2232.97V2296.53H2344V2232.97H2336ZM2336 2360.09V2423.66H2344V2360.09H2336ZM2336 2487.22V2519H2344V2487.22H2336ZM2336 2519C2336 2517.9 2336.9 2517 2338 2517V2525C2341.31 2525 2344 2522.31 2344 2519H2336ZM2338 2517H2306.58V2525H2338V2517ZM2243.74 2517H2180.9V2525H2243.74V2517ZM2118.06 2517H2055.22V2525H2118.06V2517ZM1992.38 2517H1929.54V2525H1992.38V2517ZM1866.7 2517H1803.86V2525H1866.7V2517ZM1741.02 2517H1678.18V2525H1741.02V2517ZM1615.34 2517H1552.5V2525H1615.34V2517ZM1489.66 2517H1426.82V2525H1489.66V2517ZM1363.98 2517H1301.14V2525H1363.98V2517ZM1238.3 2517H1175.46V2525H1238.3V2517ZM1112.62 2517H1049.78V2525H1112.62V2517ZM986.94 2517H924.1V2525H986.94V2517ZM861.26 2517H798.42V2525H861.26V2517ZM735.58 2517H672.74V2525H735.58V2517ZM609.9 2517H547.06V2525H609.9V2517ZM484.22 2517H421.38V2525H484.22V2517ZM358.54 2517H295.7V2525H358.54V2517ZM232.86 2517H170.02V2525H232.86V2517ZM107.18 2517H44.3401V2525H107.18V2517ZM-18.4999 2517H-81.3401V2525H-18.4999V2517ZM-144.18 2517H-207.02V2525H-144.18V2517ZM-269.86 2517H-332.7V2525H-269.86V2517ZM-395.541 2517H-458.381V2525H-395.541V2517ZM-521.221 2517H-584.061V2525H-521.221V2517ZM-646.901 2517H-709.741V2525H-646.901V2517ZM-772.581 2517H-804V2525H-772.581V2517Z" fill="white"/>
<g id="Landing user login - desktop">
<rect width="1440" height="340" transform="translate(-423 -30)" fill="#F4F5F7"/>
<g id="Navbar - User Login" clip-path="url(#clip0_0_1)">
<rect id="Rectangle 2" x="-423" y="-30" width="1440" height="81" fill="white"/>
<path id="Rectangle 4" d="M-20 -4C-20 -8.41828 -16.4183 -12 -12 -12H169V32H-12C-16.4183 32 -20 28.4183 -20 24V-4Z" fill="#F4F5F7"/>
<g id="map-pin-alt-svgrepo-com 1">
<path id="Vector" d="M4.16602 12.7776C2.62321 13.3659 1.66602 14.1855 1.66602 15.0922C1.66602 16.8822 5.39698 18.3332 9.99935 18.3332C14.6018 18.3332 18.3327 16.8822 18.3327 15.0922C18.3327 14.1855 17.3755 13.3659 15.8327 12.7776M9.99935 7.22206H10.0086M15.5549 7.22206C15.5549 10.9847 11.3882 12.7776 9.99935 15.5554C8.61046 12.7776 4.44379 10.9847 4.44379 7.22206C4.44379 4.15381 6.9311 1.6665 9.99935 1.6665C13.0676 1.6665 15.5549 4.15381 15.5549 7.22206ZM10.9253 7.22206C10.9253 7.73343 10.5107 8.14799 9.99935 8.14799C9.48796 8.14799 9.07342 7.73343 9.07342 7.22206C9.07342 6.71069 9.48796 6.29613 9.99935 6.29613C10.5107 6.29613 10.9253 6.71069 10.9253 7.22206Z" stroke="#AAAAAA" stroke-width="1.3" stroke-linecap="round" stroke-linejoin="round"/>
</g>
</g>
</g>
</g>
<defs>
<clipPath id="clip0_0_1">
<rect width="1440" height="81" fill="white" transform="translate(-423 -30)"/>
</clipPath>
</defs>
</svg>
