<svg width="20" height="20" viewBox="0 0 20 20" fill="none" xmlns="http://www.w3.org/2000/svg">
<path d="M2 6.57143L6.84437 9.68569C7.98484 10.4188 8.55511 10.7854 9.17138 10.9279C9.71609 11.0537 10.2839 11.0537 10.8286 10.9279C11.4449 10.7854 12.0152 10.4188 13.1556 9.68569L18 6.57143M4.84444 16H15.1556C16.1512 16 16.6491 16 17.0293 15.8131C17.3638 15.6488 17.6358 15.3865 17.8062 15.064C18 14.6973 18 14.2172 18 13.2571V6.74286C18 5.78277 18 5.30272 17.8062 4.93602C17.6358 4.61345 17.3638 4.3512 17.0293 4.18685C16.6491 4 16.1512 4 15.1556 4H4.84444C3.8488 4 3.35097 4 2.97068 4.18685C2.63617 4.3512 2.3642 4.61345 2.19377 4.93602C2 5.30272 2 5.78276 2 6.74286V13.2571C2 14.2172 2 14.6973 2.19377 15.064C2.3642 15.3865 2.63617 15.6488 2.97068 15.8131C3.35097 16 3.84879 16 4.84444 16Z" stroke="#333333" stroke-width="1.3" stroke-linecap="round" stroke-linejoin="round"/>
</svg>
