<svg width="16" height="16" viewBox="0 0 16 16" fill="none" xmlns="http://www.w3.org/2000/svg">
<path d="M3.33398 10.2221C2.09974 10.6927 1.33398 11.3484 1.33398 12.0738C1.33398 13.5058 4.31875 14.6666 8.00065 14.6666C11.6826 14.6666 14.6673 13.5058 14.6673 12.0738C14.6673 11.3484 13.9015 10.6927 12.6673 10.2221M8.00065 5.7777H8.00806M12.4451 5.7777C12.4451 8.78784 9.11176 10.2221 8.00065 12.4444C6.88954 10.2221 3.55621 8.78784 3.55621 5.7777C3.55621 3.3231 5.54605 1.33325 8.00065 1.33325C10.4552 1.33325 12.4451 3.3231 12.4451 5.7777ZM8.74139 5.7777C8.74139 6.18679 8.40976 6.51844 8.00065 6.51844C7.59154 6.51844 7.25991 6.18679 7.25991 5.7777C7.25991 5.3686 7.59154 5.03696 8.00065 5.03696C8.40976 5.03696 8.74139 5.3686 8.74139 5.7777Z" stroke="#AAAAAA" stroke-width="1.3" stroke-linecap="round" stroke-linejoin="round"/>
</svg>
