<svg width="18" height="18" viewBox="0 0 18 18" fill="none" xmlns="http://www.w3.org/2000/svg">
<path d="M3.16602 11.7779C1.62321 12.3661 0.666016 13.1857 0.666016 14.0924C0.666016 15.8824 4.39698 17.3334 8.99935 17.3334C13.6018 17.3334 17.3327 15.8824 17.3327 14.0924C17.3327 13.1857 16.3755 12.3661 14.8327 11.7779M8.99935 6.2223H9.00861M14.5549 6.2223C14.5549 9.98499 10.3882 11.7779 8.99935 14.5556C7.61046 11.7779 3.44379 9.98499 3.44379 6.2223C3.44379 3.15405 5.9311 0.666748 8.99935 0.666748C12.0676 0.666748 14.5549 3.15405 14.5549 6.2223ZM9.92527 6.2223C9.92527 6.73367 9.51074 7.14823 8.99935 7.14823C8.48796 7.14823 8.07342 6.73367 8.07342 6.2223C8.07342 5.71093 8.48796 5.29638 8.99935 5.29638C9.51074 5.29638 9.92527 5.71093 9.92527 6.2223Z" stroke="#AAAAAA" stroke-width="1.3" stroke-linecap="round" stroke-linejoin="round"/>
</svg>
