<svg width="12" height="12" viewBox="0 0 12 12" fill="none" xmlns="http://www.w3.org/2000/svg">
<rect width="12" height="12" fill="#1E1E1E"/>
<g id="User Journey - Not Registered">
<path d="M-1062 -6238C-1062 -6293.23 -1017.23 -6338 -962 -6338H8666C8721.23 -6338 8766 -6293.23 8766 -6238V3389C8766 3444.23 8721.23 3489 8666 3489H-962C-1017.23 3489 -1062 3444.23 -1062 3389V-6238Z" fill="#404040"/>
<path d="M-962 3485C-975.024 3485 -987.433 3482.41 -998.747 3477.72L-1001.81 3485.11C-989.543 3490.19 -976.094 3493 -962 3493V3485ZM-1050.72 3425.75C-1055.41 3414.43 -1058 3402.02 -1058 3389H-1066C-1066 3403.09 -1063.19 3416.54 -1058.11 3428.81L-1050.72 3425.75ZM-1058 3389V3356.91H-1066V3389H-1058ZM-1058 3292.73V3228.55H-1066V3292.73H-1058ZM-1058 3164.37V3100.19H-1066V3164.37H-1058ZM-1058 3036.01V2971.83H-1066V3036.01H-1058ZM-1058 2907.65V2843.47H-1066V2907.65H-1058ZM-1058 2779.29V2715.11H-1066V2779.29H-1058ZM-1058 2650.93V2586.75H-1066V2650.93H-1058ZM-1058 2522.57V2458.39H-1066V2522.57H-1058ZM-1058 2394.21V2330.03H-1066V2394.21H-1058ZM-1058 2265.85V2201.67H-1066V2265.85H-1058ZM-1058 2137.49V2073.31H-1066V2137.49H-1058ZM-1058 2009.13V1944.95H-1066V2009.13H-1058ZM-1058 1880.77V1816.59H-1066V1880.77H-1058ZM-1058 1752.41V1688.23H-1066V1752.41H-1058ZM-1058 1624.05V1559.87H-1066V1624.05H-1058ZM-1058 1495.69V1431.51H-1066V1495.69H-1058ZM-1058 1367.33V1303.15H-1066V1367.33H-1058ZM-1058 1238.97V1174.79H-1066V1238.97H-1058ZM-1058 1110.61V1046.43H-1066V1110.61H-1058ZM-1058 982.25V918.069H-1066V982.25H-1058ZM-1058 853.89V789.709H-1066V853.89H-1058ZM-1058 725.53V661.35H-1066V725.53H-1058ZM-1058 597.17V532.99H-1066V597.17H-1058ZM-1058 468.81V404.63H-1066V468.81H-1058ZM-1058 340.45V276.271H-1066V340.45H-1058ZM-1058 212.09V147.911H-1066V212.09H-1058ZM-1058 83.7305V19.5508H-1066V83.7305H-1058ZM-1058 -44.6294V-108.809H-1066V-44.6294H-1058ZM-1058 -172.989V-237.169H-1066V-172.989H-1058ZM-1058 -301.349V-365.529H-1066V-301.349H-1058ZM-1058 -429.709V-493.889H-1066V-429.709H-1058ZM-1058 -558.069V-622.249H-1066V-558.069H-1058ZM-1058 -686.429V-750.609H-1066V-686.429H-1058ZM-1058 -814.789V-878.969H-1066V-814.789H-1058ZM-1058 -943.149V-1007.33H-1066V-943.149H-1058ZM-1058 -1071.51V-1135.69H-1066V-1071.51H-1058ZM-1058 -1199.87V-1264.05H-1066V-1199.87H-1058ZM-1058 -1328.23V-1392.41H-1066V-1328.23H-1058ZM-1058 -1456.59V-1520.77H-1066V-1456.59H-1058ZM-1058 -1584.95V-1649.13H-1066V-1584.95H-1058ZM-1058 -1713.31V-1777.49H-1066V-1713.31H-1058ZM-1058 -1841.67V-1905.85H-1066V-1841.67H-1058ZM-1058 -1970.03V-2034.21H-1066V-1970.03H-1058ZM-1058 -2098.39V-2162.57H-1066V-2098.39H-1058ZM-1058 -2226.75V-2290.93H-1066V-2226.75H-1058ZM-1058 -2355.11V-2419.29H-1066V-2355.11H-1058ZM-1058 -2483.47V-2547.65H-1066V-2483.47H-1058ZM-1058 -2611.83V-2676.01H-1066V-2611.83H-1058ZM-1058 -2740.19V-2804.37H-1066V-2740.19H-1058ZM-1058 -2868.55V-2932.73H-1066V-2868.55H-1058ZM-1058 -2996.91V-3061.1H-1066V-2996.91H-1058ZM-1058 -3125.28V-3189.46H-1066V-3125.28H-1058ZM-1058 -3253.64V-3317.82H-1066V-3253.64H-1058ZM-1058 -3382V-3446.18H-1066V-3382H-1058ZM-1058 -3510.36V-3574.54H-1066V-3510.36H-1058ZM-1058 -3638.72V-3702.9H-1066V-3638.72H-1058ZM-1058 -3767.08V-3831.26H-1066V-3767.08H-1058ZM-1058 -3895.44V-3959.62H-1066V-3895.44H-1058ZM-1058 -4023.8V-4087.98H-1066V-4023.8H-1058ZM-1058 -4152.16V-4216.34H-1066V-4152.16H-1058ZM-1058 -4280.52V-4344.7H-1066V-4280.52H-1058ZM-1058 -4408.88V-4473.06H-1066V-4408.88H-1058ZM-1058 -4537.24V-4601.42H-1066V-4537.24H-1058ZM-1058 -4665.6V-4729.78H-1066V-4665.6H-1058ZM-1058 -4793.96V-4858.14H-1066V-4793.96H-1058ZM-1058 -4922.32V-4986.5H-1066V-4922.32H-1058ZM-1058 -5050.68V-5114.86H-1066V-5050.68H-1058ZM-1058 -5179.04V-5243.22H-1066V-5179.04H-1058ZM-1058 -5307.4V-5371.58H-1066V-5307.4H-1058ZM-1058 -5435.76V-5499.94H-1066V-5435.76H-1058ZM-1058 -5564.12V-5628.3H-1066V-5564.12H-1058ZM-1058 -5692.48V-5756.65H-1066V-5692.48H-1058ZM-1058 -5820.83V-5885.01H-1066V-5820.83H-1058ZM-1058 -5949.19V-6013.37H-1066V-5949.19H-1058ZM-1058 -6077.55V-6141.73H-1066V-6077.55H-1058ZM-1058 -6205.91V-6238H-1066V-6205.91H-1058ZM-1058 -6238C-1058 -6251.02 -1055.41 -6263.43 -1050.72 -6274.75L-1058.11 -6277.81C-1063.19 -6265.54 -1066 -6252.09 -1066 -6238H-1058ZM-998.747 -6326.72C-987.433 -6331.41 -975.024 -6334 -962 -6334V-6342C-976.094 -6342 -989.543 -6339.19 -1001.81 -6334.11L-998.747 -6326.72ZM-962 -6334H-929.907V-6342H-962V-6334ZM-865.72 -6334H-801.533V-6342H-865.72V-6334ZM-737.347 -6334H-673.16V-6342H-737.347V-6334ZM-608.973 -6334H-544.787V-6342H-608.973V-6334ZM-480.6 -6334H-416.413V-6342H-480.6V-6334ZM-352.227 -6334H-288.04V-6342H-352.227V-6334ZM-223.853 -6334H-159.667V-6342H-223.853V-6334ZM-95.48 -6334H-31.2935V-6342H-95.48V-6334ZM32.8933 -6334H97.08V-6342H32.8933V-6334ZM161.267 -6334H225.453V-6342H161.267V-6334ZM289.64 -6334H353.827V-6342H289.64V-6334ZM418.013 -6334H482.2V-6342H418.013V-6334ZM546.387 -6334H610.573V-6342H546.387V-6334ZM674.76 -6334H738.947V-6342H674.76V-6334ZM803.133 -6334H867.32V-6342H803.133V-6334ZM931.506 -6334H995.693V-6342H931.506V-6334ZM1059.88 -6334H1124.07V-6342H1059.88V-6334ZM1188.25 -6334H1252.44V-6342H1188.25V-6334ZM1316.63 -6334H1380.81V-6342H1316.63V-6334ZM1445 -6334H1509.19V-6342H1445V-6334ZM1573.37 -6334H1637.56V-6342H1573.37V-6334ZM1701.75 -6334H1765.93V-6342H1701.75V-6334ZM1830.12 -6334H1894.31V-6342H1830.12V-6334ZM1958.49 -6334H2022.68V-6342H1958.49V-6334ZM2086.87 -6334H2151.05V-6342H2086.87V-6334ZM2215.24 -6334H2279.43V-6342H2215.24V-6334ZM2343.62 -6334H2407.8V-6342H2343.62V-6334ZM2471.99 -6334H2536.18V-6342H2471.99V-6334ZM2600.36 -6334H2664.55V-6342H2600.36V-6334ZM2728.74 -6334H2792.92V-6342H2728.74V-6334ZM2857.11 -6334H2921.3V-6342H2857.11V-6334ZM2985.48 -6334H3049.67V-6342H2985.48V-6334ZM3113.86 -6334H3178.04V-6342H3113.86V-6334ZM3242.23 -6334H3306.42V-6342H3242.23V-6334ZM3370.6 -6334H3434.79V-6342H3370.6V-6334ZM3498.98 -6334H3563.16V-6342H3498.98V-6334ZM3627.35 -6334H3691.54V-6342H3627.35V-6334ZM3755.72 -6334H3819.91V-6342H3755.72V-6334ZM3884.09 -6334H3948.28V-6342H3884.09V-6334ZM4012.47 -6334H4076.65V-6342H4012.47V-6334ZM4140.84 -6334H4205.03V-6342H4140.84V-6334ZM4269.21 -6334H4333.4V-6342H4269.21V-6334ZM4397.59 -6334H4461.77V-6342H4397.59V-6334ZM4525.96 -6334H4590.15V-6342H4525.96V-6334ZM4654.33 -6334H4718.52V-6342H4654.33V-6334ZM4782.71 -6334H4846.89V-6342H4782.71V-6334ZM4911.08 -6334H4975.27V-6342H4911.08V-6334ZM5039.45 -6334H5103.64V-6342H5039.45V-6334ZM5167.83 -6334H5232.01V-6342H5167.83V-6334ZM5296.2 -6334H5360.38V-6342H5296.2V-6334ZM5424.57 -6334H5488.76V-6342H5424.57V-6334ZM5552.94 -6334H5617.13V-6342H5552.94V-6334ZM5681.32 -6334H5745.5V-6342H5681.32V-6334ZM5809.69 -6334H5873.88V-6342H5809.69V-6334ZM5938.06 -6334H6002.25V-6342H5938.06V-6334ZM6066.44 -6334H6130.62V-6342H6066.44V-6334ZM6194.81 -6334H6259V-6342H6194.81V-6334ZM6323.18 -6334H6387.37V-6342H6323.18V-6334ZM6451.56 -6334H6515.74V-6342H6451.56V-6334ZM6579.93 -6334H6644.12V-6342H6579.93V-6334ZM6708.3 -6334H6772.49V-6342H6708.3V-6334ZM6836.67 -6334H6900.86V-6342H6836.67V-6334ZM6965.05 -6334H7029.23V-6342H6965.05V-6334ZM7093.42 -6334H7157.61V-6342H7093.42V-6334ZM7221.79 -6334H7285.98V-6342H7221.79V-6334ZM7350.17 -6334H7414.35V-6342H7350.17V-6334ZM7478.54 -6334H7542.73V-6342H7478.54V-6334ZM7606.91 -6334H7671.1V-6342H7606.91V-6334ZM7735.29 -6334H7799.47V-6342H7735.29V-6334ZM7863.66 -6334H7927.85V-6342H7863.66V-6334ZM7992.03 -6334H8056.22V-6342H7992.03V-6334ZM8120.41 -6334H8184.59V-6342H8120.41V-6334ZM8248.78 -6334H8312.96V-6342H8248.78V-6334ZM8377.15 -6334H8441.34V-6342H8377.15V-6334ZM8505.52 -6334H8569.71V-6342H8505.52V-6334ZM8633.9 -6334H8666V-6342H8633.9V-6334ZM8666 -6334C8679.02 -6334 8691.43 -6331.41 8702.75 -6326.72L8705.81 -6334.11C8693.54 -6339.19 8680.09 -6342 8666 -6342V-6334ZM8754.72 -6274.75C8759.41 -6263.43 8762 -6251.02 8762 -6238H8770C8770 -6252.09 8767.19 -6265.54 8762.11 -6277.81L8754.72 -6274.75ZM8762 -6238V-6205.91H8770V-6238H8762ZM8762 -6141.73V-6077.55H8770V-6141.73H8762ZM8762 -6013.37V-5949.19H8770V-6013.37H8762ZM8762 -5885.01V-5820.83H8770V-5885.01H8762ZM8762 -5756.65V-5692.47H8770V-5756.65H8762ZM8762 -5628.29V-5564.11H8770V-5628.29H8762ZM8762 -5499.93V-5435.75H8770V-5499.93H8762ZM8762 -5371.57V-5307.39H8770V-5371.57H8762ZM8762 -5243.21V-5179.03H8770V-5243.21H8762ZM8762 -5114.85V-5050.67H8770V-5114.85H8762ZM8762 -4986.49V-4922.31H8770V-4986.49H8762ZM8762 -4858.13V-4793.95H8770V-4858.13H8762ZM8762 -4729.77V-4665.59H8770V-4729.77H8762ZM8762 -4601.41V-4537.23H8770V-4601.41H8762ZM8762 -4473.05V-4408.87H8770V-4473.05H8762ZM8762 -4344.69V-4280.51H8770V-4344.69H8762ZM8762 -4216.33V-4152.15H8770V-4216.33H8762ZM8762 -4087.97V-4023.79H8770V-4087.97H8762ZM8762 -3959.61V-3895.43H8770V-3959.61H8762ZM8762 -3831.25V-3767.07H8770V-3831.25H8762ZM8762 -3702.89V-3638.71H8770V-3702.89H8762ZM8762 -3574.53V-3510.35H8770V-3574.53H8762ZM8762 -3446.17V-3381.99H8770V-3446.17H8762ZM8762 -3317.81V-3253.63H8770V-3317.81H8762ZM8762 -3189.45V-3125.27H8770V-3189.45H8762ZM8762 -3061.09V-2996.91H8770V-3061.09H8762ZM8762 -2932.73V-2868.55H8770V-2932.73H8762ZM8762 -2804.37V-2740.19H8770V-2804.37H8762ZM8762 -2676.01V-2611.83H8770V-2676.01H8762ZM8762 -2547.65V-2483.47H8770V-2547.65H8762ZM8762 -2419.29V-2355.11H8770V-2419.29H8762ZM8762 -2290.93V-2226.75H8770V-2290.93H8762ZM8762 -2162.57V-2098.39H8770V-2162.57H8762ZM8762 -2034.21V-1970.03H8770V-2034.21H8762ZM8762 -1905.85V-1841.67H8770V-1905.85H8762ZM8762 -1777.49V-1713.31H8770V-1777.49H8762ZM8762 -1649.13V-1584.95H8770V-1649.13H8762ZM8762 -1520.77V-1456.59H8770V-1520.77H8762ZM8762 -1392.41V-1328.23H8770V-1392.41H8762ZM8762 -1264.05V-1199.87H8770V-1264.05H8762ZM8762 -1135.69V-1071.51H8770V-1135.69H8762ZM8762 -1007.33V-943.148H8770V-1007.33H8762ZM8762 -878.968V-814.788H8770V-878.968H8762ZM8762 -750.607V-686.427H8770V-750.607H8762ZM8762 -622.248V-558.067H8770V-622.248H8762ZM8762 -493.887V-429.707H8770V-493.887H8762ZM8762 -365.526V-301.346H8770V-365.526H8762ZM8762 -237.166V-172.986H8770V-237.166H8762ZM8762 -108.806V-44.6255H8770V-108.806H8762ZM8762 19.5547V83.7349H8770V19.5547H8762ZM8762 147.915V212.095H8770V147.915H8762ZM8762 276.275V340.456H8770V276.275H8762ZM8762 404.636V468.815H8770V404.636H8762ZM8762 532.996V597.176H8770V532.996H8762ZM8762 661.356V725.537H8770V661.356H8762ZM8762 789.717V853.897H8770V789.717H8762ZM8762 918.077V982.257H8770V918.077H8762ZM8762 1046.44V1110.62H8770V1046.44H8762ZM8762 1174.8V1238.98H8770V1174.8H8762ZM8762 1303.16V1367.34H8770V1303.16H8762ZM8762 1431.52V1495.7H8770V1431.52H8762ZM8762 1559.88V1624.06H8770V1559.88H8762ZM8762 1688.24V1752.42H8770V1688.24H8762ZM8762 1816.6V1880.78H8770V1816.6H8762ZM8762 1944.96V2009.14H8770V1944.96H8762ZM8762 2073.32V2137.5H8770V2073.32H8762ZM8762 2201.68V2265.86H8770V2201.68H8762ZM8762 2330.04V2394.22H8770V2330.04H8762ZM8762 2458.4V2522.58H8770V2458.4H8762ZM8762 2586.76V2650.94H8770V2586.76H8762ZM8762 2715.12V2779.3H8770V2715.12H8762ZM8762 2843.48V2907.66H8770V2843.48H8762ZM8762 2971.83V3036.01H8770V2971.83H8762ZM8762 3100.19V3164.37H8770V3100.19H8762ZM8762 3228.55V3292.73H8770V3228.55H8762ZM8762 3356.91V3389H8770V3356.91H8762ZM8762 3389C8762 3402.02 8759.41 3414.43 8754.72 3425.75L8762.11 3428.81C8767.19 3416.54 8770 3403.09 8770 3389H8762ZM8702.75 3477.72C8691.43 3482.41 8679.02 3485 8666 3485V3493C8680.09 3493 8693.54 3490.19 8705.81 3485.11L8702.75 3477.72ZM8666 3485H8633.91V3493H8666V3485ZM8569.72 3485H8505.53V3493H8569.72V3485ZM8441.35 3485H8377.16V3493H8441.35V3485ZM8312.97 3485H8248.79V3493H8312.97V3485ZM8184.6 3485H8120.41V3493H8184.6V3485ZM8056.23 3485H7992.04V3493H8056.23V3485ZM7927.85 3485H7863.67V3493H7927.85V3485ZM7799.48 3485H7735.29V3493H7799.48V3485ZM7671.11 3485H7606.92V3493H7671.11V3485ZM7542.73 3485H7478.55V3493H7542.73V3485ZM7414.36 3485H7350.17V3493H7414.36V3485ZM7285.99 3485H7221.8V3493H7285.99V3485ZM7157.61 3485H7093.43V3493H7157.61V3485ZM7029.24 3485H6965.05V3493H7029.24V3485ZM6900.87 3485H6836.68V3493H6900.87V3485ZM6772.49 3485H6708.31V3493H6772.49V3485ZM6644.12 3485H6579.93V3493H6644.12V3485ZM6515.75 3485H6451.56V3493H6515.75V3485ZM6387.37 3485H6323.19V3493H6387.37V3485ZM6259 3485H6194.81V3493H6259V3485ZM6130.63 3485H6066.44V3493H6130.63V3485ZM6002.25 3485H5938.07V3493H6002.25V3485ZM5873.88 3485H5809.69V3493H5873.88V3485ZM5745.51 3485H5681.32V3493H5745.51V3485ZM5617.13 3485H5552.95V3493H5617.13V3485ZM5488.76 3485H5424.57V3493H5488.76V3485ZM5360.38 3485H5296.2V3493H5360.38V3485ZM5232.01 3485H5167.82V3493H5232.01V3485ZM5103.64 3485H5039.45V3493H5103.64V3485ZM4975.26 3485H4911.08V3493H4975.26V3485ZM4846.89 3485H4782.7V3493H4846.89V3485ZM4718.52 3485H4654.33V3493H4718.52V3485ZM4590.14 3485H4525.96V3493H4590.14V3485ZM4461.77 3485H4397.58V3493H4461.77V3485ZM4333.4 3485H4269.21V3493H4333.4V3485ZM4205.02 3485H4140.84V3493H4205.02V3485ZM4076.65 3485H4012.46V3493H4076.65V3485ZM3948.28 3485H3884.09V3493H3948.28V3485ZM3819.91 3485H3755.72V3493H3819.91V3485ZM3691.53 3485H3627.35V3493H3691.53V3485ZM3563.16 3485H3498.97V3493H3563.16V3485ZM3434.79 3485H3370.6V3493H3434.79V3485ZM3306.41 3485H3242.23V3493H3306.41V3485ZM3178.04 3485H3113.85V3493H3178.04V3485ZM3049.67 3485H2985.48V3493H3049.67V3485ZM2921.29 3485H2857.11V3493H2921.29V3485ZM2792.92 3485H2728.73V3493H2792.92V3485ZM2664.55 3485H2600.36V3493H2664.55V3485ZM2536.17 3485H2471.99V3493H2536.17V3485ZM2407.8 3485H2343.62V3493H2407.8V3485ZM2279.43 3485H2215.24V3493H2279.43V3485ZM2151.06 3485H2086.87V3493H2151.06V3485ZM2022.68 3485H1958.5V3493H2022.68V3485ZM1894.31 3485H1830.12V3493H1894.31V3485ZM1765.94 3485H1701.75V3493H1765.94V3485ZM1637.56 3485H1573.38V3493H1637.56V3485ZM1509.19 3485H1445V3493H1509.19V3485ZM1380.82 3485H1316.63V3493H1380.82V3485ZM1252.44 3485H1188.26V3493H1252.44V3485ZM1124.07 3485H1059.88V3493H1124.07V3485ZM995.698 3485H931.512V3493H995.698V3485ZM867.325 3485H803.138V3493H867.325V3485ZM738.952 3485H674.766V3493H738.952V3485ZM610.579 3485H546.393V3493H610.579V3485ZM482.206 3485H418.019V3493H482.206V3485ZM353.833 3485H289.646V3493H353.833V3485ZM225.46 3485H161.273V3493H225.46V3485ZM97.0868 3485H32.9003V3493H97.0868V3485ZM-31.2864 3485H-95.473V3493H-31.2864V3485ZM-159.66 3485H-223.846V3493H-159.66V3485ZM-288.032 3485H-352.219V3493H-288.032V3485ZM-416.405 3485H-480.592V3493H-416.405V3485ZM-544.779 3485H-608.965V3493H-544.779V3485ZM-673.151 3485H-737.338V3493H-673.151V3485ZM-801.525 3485H-865.711V3493H-801.525V3485ZM-929.898 3485H-962V3493H-929.898V3485Z" fill="white"/>
<g id="Landing - responsive">
<rect width="390" height="3191" transform="translate(-144 -522)" fill="#F4F5F7"/>
<g id="Frame 38">
<rect x="-124" y="-161" width="170" height="280" rx="12" fill="white"/>
<g id="eye-alt-svgrepo-com 1">
<path id="Vector" d="M1 7.14286C1 4.30254 3.23858 2 6 2C8.76144 2 11 4.30254 11 7.14286M8.77778 7.14286C8.77778 8.7208 7.53411 10 6 10C4.46588 10 3.22222 8.7208 3.22222 7.14286C3.22222 5.56491 4.46588 4.28571 6 4.28571C7.53411 4.28571 8.77778 5.56491 8.77778 7.14286Z" stroke="#AAAAAA" stroke-width="0.8" stroke-linecap="round" stroke-linejoin="round"/>
</g>
</g>
</g>
</g>
</svg>
