<svg width="22" height="22" viewBox="0 0 22 22" fill="none" xmlns="http://www.w3.org/2000/svg">
<path fill-rule="evenodd" clip-rule="evenodd" d="M11.631 6.5625C11.1132 6.5625 10.6935 6.14277 10.6935 5.625C10.6935 5.10723 11.1132 4.6875 11.631 4.6875H18.251C18.7687 4.6875 19.1885 5.10723 19.1885 5.625C19.1885 6.14277 18.7687 6.5625 18.251 6.5625H11.631ZM2.31262 11.25C2.31262 11.7678 2.73235 12.1875 3.25012 12.1875H18.2501C18.7679 12.1875 19.1876 11.7678 19.1876 11.25C19.1876 10.7322 18.7679 10.3125 18.2501 10.3125H3.25012C2.73235 10.3125 2.31262 10.7322 2.31262 11.25ZM6.94141 16.875C6.94141 17.3928 7.36114 17.8125 7.87891 17.8125H18.2489C18.7667 17.8125 19.1864 17.3928 19.1864 16.875C19.1864 16.3572 18.7667 15.9375 18.2489 15.9375H7.87891C7.36114 15.9375 6.94141 16.3572 6.94141 16.875Z" fill="#333333"/>
</svg>
