<svg width="48" height="48" viewBox="0 0 48 48" fill="none" xmlns="http://www.w3.org/2000/svg">
<path fill-rule="evenodd" clip-rule="evenodd" d="M24 48C37.2547 48 48 37.2547 48 24C48 10.7452 37.2547 0 24 0C10.7452 0 0 10.7452 0 24C0 37.2547 10.7452 48 24 48ZM25.8 16.8C25.8 15.8059 24.9941 15 24 15C23.0059 15 22.2 15.8059 22.2 16.8V22.2H16.8C15.8059 22.2 15 23.0059 15 24C15 24.9941 15.8059 25.8 16.8 25.8H22.2V31.2C22.2 32.1941 23.0059 33 24 33C24.9941 33 25.8 32.1941 25.8 31.2V25.8H31.2C32.1941 25.8 33 24.9941 33 24C33 23.0059 32.1941 22.2 31.2 22.2H25.8V16.8Z" fill="#FCD02F"/>
</svg>
