<svg width="20" height="20" viewBox="0 0 20 20" fill="none" xmlns="http://www.w3.org/2000/svg">
<rect width="20" height="20" fill="#1E1E1E"/>
<g id="User Journey - Not Registered">
<path d="M-1919 -997C-1919 -1052.23 -1874.23 -1097 -1819 -1097H7809C7864.23 -1097 7909 -1052.23 7909 -997V8630C7909 8685.23 7864.23 8730 7809 8730H-1819C-1874.23 8730 -1919 8685.23 -1919 8630V-997Z" fill="#404040"/>
<path d="M-1819 8726C-1832.02 8726 -1844.43 8723.41 -1855.75 8718.72L-1858.81 8726.11C-1846.54 8731.19 -1833.09 8734 -1819 8734V8726ZM-1907.72 8666.75C-1912.41 8655.43 -1915 8643.02 -1915 8630H-1923C-1923 8644.09 -1920.19 8657.54 -1915.11 8669.81L-1907.72 8666.75ZM-1915 8630V8597.91H-1923V8630H-1915ZM-1915 8533.73V8469.55H-1923V8533.73H-1915ZM-1915 8405.37V8341.19H-1923V8405.37H-1915ZM-1915 8277.01V8212.83H-1923V8277.01H-1915ZM-1915 8148.65V8084.47H-1923V8148.65H-1915ZM-1915 8020.29V7956.11H-1923V8020.29H-1915ZM-1915 7891.93V7827.75H-1923V7891.93H-1915ZM-1915 7763.57V7699.39H-1923V7763.57H-1915ZM-1915 7635.21V7571.03H-1923V7635.21H-1915ZM-1915 7506.85V7442.67H-1923V7506.85H-1915ZM-1915 7378.49V7314.31H-1923V7378.49H-1915ZM-1915 7250.13V7185.95H-1923V7250.13H-1915ZM-1915 7121.77V7057.59H-1923V7121.77H-1915ZM-1915 6993.41V6929.23H-1923V6993.41H-1915ZM-1915 6865.05V6800.87H-1923V6865.05H-1915ZM-1915 6736.69V6672.51H-1923V6736.69H-1915ZM-1915 6608.33V6544.15H-1923V6608.33H-1915ZM-1915 6479.97V6415.79H-1923V6479.97H-1915ZM-1915 6351.61V6287.43H-1923V6351.61H-1915ZM-1915 6223.25V6159.07H-1923V6223.25H-1915ZM-1915 6094.89V6030.71H-1923V6094.89H-1915ZM-1915 5966.53V5902.35H-1923V5966.53H-1915ZM-1915 5838.17V5773.99H-1923V5838.17H-1915ZM-1915 5709.81V5645.63H-1923V5709.81H-1915ZM-1915 5581.45V5517.27H-1923V5581.45H-1915ZM-1915 5453.09V5388.91H-1923V5453.09H-1915ZM-1915 5324.73V5260.55H-1923V5324.73H-1915ZM-1915 5196.37V5132.19H-1923V5196.37H-1915ZM-1915 5068.01V5003.83H-1923V5068.01H-1915ZM-1915 4939.65V4875.47H-1923V4939.65H-1915ZM-1915 4811.29V4747.11H-1923V4811.29H-1915ZM-1915 4682.93V4618.75H-1923V4682.93H-1915ZM-1915 4554.57V4490.39H-1923V4554.57H-1915ZM-1915 4426.21V4362.03H-1923V4426.21H-1915ZM-1915 4297.85V4233.67H-1923V4297.85H-1915ZM-1915 4169.49V4105.31H-1923V4169.49H-1915ZM-1915 4041.13V3976.95H-1923V4041.13H-1915ZM-1915 3912.77V3848.59H-1923V3912.77H-1915ZM-1915 3784.41V3720.23H-1923V3784.41H-1915ZM-1915 3656.05V3591.87H-1923V3656.05H-1915ZM-1915 3527.69V3463.51H-1923V3527.69H-1915ZM-1915 3399.33V3335.15H-1923V3399.33H-1915ZM-1915 3270.97V3206.79H-1923V3270.97H-1915ZM-1915 3142.61V3078.43H-1923V3142.61H-1915ZM-1915 3014.25V2950.07H-1923V3014.25H-1915ZM-1915 2885.89V2821.71H-1923V2885.89H-1915ZM-1915 2757.53V2693.35H-1923V2757.53H-1915ZM-1915 2629.17V2564.99H-1923V2629.17H-1915ZM-1915 2500.81V2436.63H-1923V2500.81H-1915ZM-1915 2372.45V2308.27H-1923V2372.45H-1915ZM-1915 2244.09V2179.9H-1923V2244.09H-1915ZM-1915 2115.72V2051.54H-1923V2115.72H-1915ZM-1915 1987.36V1923.18H-1923V1987.36H-1915ZM-1915 1859V1794.82H-1923V1859H-1915ZM-1915 1730.64V1666.46H-1923V1730.64H-1915ZM-1915 1602.28V1538.1H-1923V1602.28H-1915ZM-1915 1473.92V1409.74H-1923V1473.92H-1915ZM-1915 1345.56V1281.38H-1923V1345.56H-1915ZM-1915 1217.2V1153.02H-1923V1217.2H-1915ZM-1915 1088.84V1024.66H-1923V1088.84H-1915ZM-1915 960.481V896.301H-1923V960.481H-1915ZM-1915 832.122V767.941H-1923V832.122H-1915ZM-1915 703.761V639.581H-1923V703.761H-1915ZM-1915 575.401V511.22H-1923V575.401H-1915ZM-1915 447.04V382.86H-1923V447.04H-1915ZM-1915 318.681V254.501H-1923V318.681H-1915ZM-1915 190.322V126.142H-1923V190.322H-1915ZM-1915 61.9623V-2.21768H-1923V61.9623H-1915ZM-1915 -66.397V-130.577H-1923V-66.397H-1915ZM-1915 -194.757V-258.936H-1923V-194.757H-1915ZM-1915 -323.116V-387.296H-1923V-323.116H-1915ZM-1915 -451.476V-515.655H-1923V-451.476H-1915ZM-1915 -579.835V-644.015H-1923V-579.835H-1915ZM-1915 -708.194V-772.374H-1923V-708.194H-1915ZM-1915 -836.553V-900.733H-1923V-836.553H-1915ZM-1915 -964.913V-997H-1923V-964.913H-1915ZM-1915 -997C-1915 -1010.02 -1912.41 -1022.43 -1907.72 -1033.75L-1915.11 -1036.81C-1920.19 -1024.54 -1923 -1011.09 -1923 -997H-1915ZM-1855.75 -1085.72C-1844.43 -1090.41 -1832.02 -1093 -1819 -1093V-1101C-1833.09 -1101 -1846.54 -1098.19 -1858.81 -1093.11L-1855.75 -1085.72ZM-1819 -1093H-1786.91V-1101H-1819V-1093ZM-1722.72 -1093H-1658.53V-1101H-1722.72V-1093ZM-1594.35 -1093H-1530.16V-1101H-1594.35V-1093ZM-1465.97 -1093H-1401.79V-1101H-1465.97V-1093ZM-1337.6 -1093H-1273.41V-1101H-1337.6V-1093ZM-1209.23 -1093H-1145.04V-1101H-1209.23V-1093ZM-1080.85 -1093H-1016.67V-1101H-1080.85V-1093ZM-952.48 -1093H-888.293V-1101H-952.48V-1093ZM-824.107 -1093H-759.92V-1101H-824.107V-1093ZM-695.733 -1093H-631.547V-1101H-695.733V-1093ZM-567.36 -1093H-503.173V-1101H-567.36V-1093ZM-438.987 -1093H-374.8V-1101H-438.987V-1093ZM-310.613 -1093H-246.427V-1101H-310.613V-1093ZM-182.24 -1093H-118.053V-1101H-182.24V-1093ZM-53.8669 -1093H10.3197V-1101H-53.8669V-1093ZM74.5063 -1093H138.693V-1101H74.5063V-1093ZM202.88 -1093H267.066V-1101H202.88V-1093ZM331.253 -1093H395.44V-1101H331.253V-1093ZM459.627 -1093H523.814V-1101H459.627V-1093ZM588 -1093H652.187V-1101H588V-1093ZM716.374 -1093H780.561V-1101H716.374V-1093ZM844.747 -1093H908.934V-1101H844.747V-1093ZM973.121 -1093H1037.31V-1101H973.121V-1093ZM1101.49 -1093H1165.68V-1101H1101.49V-1093ZM1229.87 -1093H1294.05V-1101H1229.87V-1093ZM1358.24 -1093H1422.43V-1101H1358.24V-1093ZM1486.62 -1093H1550.8V-1101H1486.62V-1093ZM1614.99 -1093H1679.18V-1101H1614.99V-1093ZM1743.36 -1093H1807.55V-1101H1743.36V-1093ZM1871.74 -1093H1935.92V-1101H1871.74V-1093ZM2000.11 -1093H2064.3V-1101H2000.11V-1093ZM2128.48 -1093H2192.67V-1101H2128.48V-1093ZM2256.86 -1093H2321.04V-1101H2256.86V-1093ZM2385.23 -1093H2449.42V-1101H2385.23V-1093ZM2513.6 -1093H2577.79V-1101H2513.6V-1093ZM2641.98 -1093H2706.16V-1101H2641.98V-1093ZM2770.35 -1093H2834.54V-1101H2770.35V-1093ZM2898.72 -1093H2962.91V-1101H2898.72V-1093ZM3027.09 -1093H3091.28V-1101H3027.09V-1093ZM3155.47 -1093H3219.65V-1101H3155.47V-1093ZM3283.84 -1093H3348.03V-1101H3283.84V-1093ZM3412.21 -1093H3476.4V-1101H3412.21V-1093ZM3540.59 -1093H3604.77V-1101H3540.59V-1093ZM3668.96 -1093H3733.15V-1101H3668.96V-1093ZM3797.33 -1093H3861.52V-1101H3797.33V-1093ZM3925.71 -1093H3989.89V-1101H3925.71V-1093ZM4054.08 -1093H4118.27V-1101H4054.08V-1093ZM4182.45 -1093H4246.64V-1101H4182.45V-1093ZM4310.83 -1093H4375.01V-1101H4310.83V-1093ZM4439.2 -1093H4503.38V-1101H4439.2V-1093ZM4567.57 -1093H4631.76V-1101H4567.57V-1093ZM4695.94 -1093H4760.13V-1101H4695.94V-1093ZM4824.32 -1093H4888.5V-1101H4824.32V-1093ZM4952.69 -1093H5016.88V-1101H4952.69V-1093ZM5081.06 -1093H5145.25V-1101H5081.06V-1093ZM5209.44 -1093H5273.62V-1101H5209.44V-1093ZM5337.81 -1093H5402V-1101H5337.81V-1093ZM5466.18 -1093H5530.37V-1101H5466.18V-1093ZM5594.56 -1093H5658.74V-1101H5594.56V-1093ZM5722.93 -1093H5787.12V-1101H5722.93V-1093ZM5851.3 -1093H5915.49V-1101H5851.3V-1093ZM5979.68 -1093H6043.86V-1101H5979.68V-1093ZM6108.05 -1093H6172.23V-1101H6108.05V-1093ZM6236.42 -1093H6300.61V-1101H6236.42V-1093ZM6364.79 -1093H6428.98V-1101H6364.79V-1093ZM6493.17 -1093H6557.35V-1101H6493.17V-1093ZM6621.54 -1093H6685.73V-1101H6621.54V-1093ZM6749.91 -1093H6814.1V-1101H6749.91V-1093ZM6878.29 -1093H6942.47V-1101H6878.29V-1093ZM7006.66 -1093H7070.85V-1101H7006.66V-1093ZM7135.03 -1093H7199.22V-1101H7135.03V-1093ZM7263.41 -1093H7327.59V-1101H7263.41V-1093ZM7391.78 -1093H7455.97V-1101H7391.78V-1093ZM7520.15 -1093H7584.34V-1101H7520.15V-1093ZM7648.52 -1093H7712.71V-1101H7648.52V-1093ZM7776.9 -1093H7809V-1101H7776.9V-1093ZM7809 -1093C7822.02 -1093 7834.43 -1090.41 7845.75 -1085.72L7848.81 -1093.11C7836.54 -1098.19 7823.09 -1101 7809 -1101V-1093ZM7897.72 -1033.75C7902.41 -1022.43 7905 -1010.02 7905 -997H7913C7913 -1011.09 7910.19 -1024.54 7905.11 -1036.81L7897.72 -1033.75ZM7905 -997V-964.91H7913V-997H7905ZM7905 -900.73V-836.55H7913V-900.73H7905ZM7905 -772.37V-708.19H7913V-772.37H7905ZM7905 -644.01V-579.83H7913V-644.01H7905ZM7905 -515.65V-451.47H7913V-515.65H7905ZM7905 -387.29V-323.11H7913V-387.29H7905ZM7905 -258.93V-194.75H7913V-258.93H7905ZM7905 -130.57V-66.3901H7913V-130.57H7905ZM7905 -2.2101V61.97H7913V-2.2101H7905ZM7905 126.15V190.33H7913V126.15H7905ZM7905 254.51V318.69H7913V254.51H7905ZM7905 382.87V447.05H7913V382.87H7905ZM7905 511.23V575.41H7913V511.23H7905ZM7905 639.59V703.771H7913V639.59H7905ZM7905 767.951V832.131H7913V767.951H7905ZM7905 896.311V960.491H7913V896.311H7905ZM7905 1024.67V1088.85H7913V1024.67H7905ZM7905 1153.03V1217.21H7913V1153.03H7905ZM7905 1281.39V1345.57H7913V1281.39H7905ZM7905 1409.75V1473.93H7913V1409.75H7905ZM7905 1538.11V1602.29H7913V1538.11H7905ZM7905 1666.47V1730.65H7913V1666.47H7905ZM7905 1794.83V1859.01H7913V1794.83H7905ZM7905 1923.19V1987.37H7913V1923.19H7905ZM7905 2051.55V2115.73H7913V2051.55H7905ZM7905 2179.91V2244.09H7913V2179.91H7905ZM7905 2308.27V2372.45H7913V2308.27H7905ZM7905 2436.63V2500.81H7913V2436.63H7905ZM7905 2564.99V2629.17H7913V2564.99H7905ZM7905 2693.35V2757.53H7913V2693.35H7905ZM7905 2821.71V2885.89H7913V2821.71H7905ZM7905 2950.07V3014.25H7913V2950.07H7905ZM7905 3078.43V3142.61H7913V3078.43H7905ZM7905 3206.79V3270.97H7913V3206.79H7905ZM7905 3335.15V3399.33H7913V3335.15H7905ZM7905 3463.51V3527.69H7913V3463.51H7905ZM7905 3591.87V3656.05H7913V3591.87H7905ZM7905 3720.23V3784.41H7913V3720.23H7905ZM7905 3848.59V3912.77H7913V3848.59H7905ZM7905 3976.95V4041.13H7913V3976.95H7905ZM7905 4105.31V4169.49H7913V4105.31H7905ZM7905 4233.67V4297.85H7913V4233.67H7905ZM7905 4362.03V4426.21H7913V4362.03H7905ZM7905 4490.39V4554.57H7913V4490.39H7905ZM7905 4618.75V4682.93H7913V4618.75H7905ZM7905 4747.11V4811.29H7913V4747.11H7905ZM7905 4875.47V4939.65H7913V4875.47H7905ZM7905 5003.83V5068.01H7913V5003.83H7905ZM7905 5132.19V5196.37H7913V5132.19H7905ZM7905 5260.55V5324.73H7913V5260.55H7905ZM7905 5388.91V5453.1H7913V5388.91H7905ZM7905 5517.28V5581.46H7913V5517.28H7905ZM7905 5645.64V5709.82H7913V5645.64H7905ZM7905 5774V5838.18H7913V5774H7905ZM7905 5902.36V5966.54H7913V5902.36H7905ZM7905 6030.72V6094.9H7913V6030.72H7905ZM7905 6159.08V6223.26H7913V6159.08H7905ZM7905 6287.44V6351.62H7913V6287.44H7905ZM7905 6415.8V6479.98H7913V6415.8H7905ZM7905 6544.16V6608.34H7913V6544.16H7905ZM7905 6672.52V6736.7H7913V6672.52H7905ZM7905 6800.88V6865.06H7913V6800.88H7905ZM7905 6929.24V6993.42H7913V6929.24H7905ZM7905 7057.6V7121.78H7913V7057.6H7905ZM7905 7185.96V7250.14H7913V7185.96H7905ZM7905 7314.32V7378.5H7913V7314.32H7905ZM7905 7442.68V7506.86H7913V7442.68H7905ZM7905 7571.04V7635.22H7913V7571.04H7905ZM7905 7699.4V7763.58H7913V7699.4H7905ZM7905 7827.76V7891.94H7913V7827.76H7905ZM7905 7956.12V8020.3H7913V7956.12H7905ZM7905 8084.48V8148.65H7913V8084.48H7905ZM7905 8212.83V8277.01H7913V8212.83H7905ZM7905 8341.19V8405.37H7913V8341.19H7905ZM7905 8469.55V8533.73H7913V8469.55H7905ZM7905 8597.91V8630H7913V8597.91H7905ZM7905 8630C7905 8643.02 7902.41 8655.43 7897.72 8666.75L7905.11 8669.81C7910.19 8657.54 7913 8644.09 7913 8630H7905ZM7845.75 8718.72C7834.43 8723.41 7822.02 8726 7809 8726V8734C7823.09 8734 7836.54 8731.19 7848.81 8726.11L7845.75 8718.72ZM7809 8726H7776.91V8734H7809V8726ZM7712.72 8726H7648.53V8734H7712.72V8726ZM7584.35 8726H7520.16V8734H7584.35V8726ZM7455.97 8726H7391.79V8734H7455.97V8726ZM7327.6 8726H7263.41V8734H7327.6V8726ZM7199.23 8726H7135.04V8734H7199.23V8726ZM7070.85 8726H7006.67V8734H7070.85V8726ZM6942.48 8726H6878.29V8734H6942.48V8726ZM6814.11 8726H6749.92V8734H6814.11V8726ZM6685.73 8726H6621.55V8734H6685.73V8726ZM6557.36 8726H6493.17V8734H6557.36V8726ZM6428.99 8726H6364.8V8734H6428.99V8726ZM6300.61 8726H6236.43V8734H6300.61V8726ZM6172.24 8726H6108.05V8734H6172.24V8726ZM6043.87 8726H5979.68V8734H6043.87V8726ZM5915.49 8726H5851.31V8734H5915.49V8726ZM5787.12 8726H5722.93V8734H5787.12V8726ZM5658.75 8726H5594.56V8734H5658.75V8726ZM5530.37 8726H5466.19V8734H5530.37V8726ZM5402 8726H5337.81V8734H5402V8726ZM5273.63 8726H5209.44V8734H5273.63V8726ZM5145.25 8726H5081.07V8734H5145.25V8726ZM5016.88 8726H4952.69V8734H5016.88V8726ZM4888.51 8726H4824.32V8734H4888.51V8726ZM4760.13 8726H4695.95V8734H4760.13V8726ZM4631.76 8726H4567.57V8734H4631.76V8726ZM4503.38 8726H4439.2V8734H4503.38V8726ZM4375.01 8726H4310.82V8734H4375.01V8726ZM4246.64 8726H4182.45V8734H4246.64V8726ZM4118.26 8726H4054.08V8734H4118.26V8726ZM3989.89 8726H3925.7V8734H3989.89V8726ZM3861.52 8726H3797.33V8734H3861.52V8726ZM3733.14 8726H3668.96V8734H3733.14V8726ZM3604.77 8726H3540.58V8734H3604.77V8726ZM3476.4 8726H3412.21V8734H3476.4V8726ZM3348.02 8726H3283.84V8734H3348.02V8726ZM3219.65 8726H3155.46V8734H3219.65V8726ZM3091.28 8726H3027.09V8734H3091.28V8726ZM2962.91 8726H2898.72V8734H2962.91V8726ZM2834.53 8726H2770.35V8734H2834.53V8726ZM2706.16 8726H2641.97V8734H2706.16V8726ZM2577.79 8726H2513.6V8734H2577.79V8726ZM2449.41 8726H2385.23V8734H2449.41V8726ZM2321.04 8726H2256.85V8734H2321.04V8726ZM2192.67 8726H2128.48V8734H2192.67V8726ZM2064.29 8726H2000.11V8734H2064.29V8726ZM1935.92 8726H1871.73V8734H1935.92V8726ZM1807.55 8726H1743.36V8734H1807.55V8726ZM1679.17 8726H1614.99V8734H1679.17V8726ZM1550.8 8726H1486.62V8734H1550.8V8726ZM1422.43 8726H1358.24V8734H1422.43V8726ZM1294.06 8726H1229.87V8734H1294.06V8726ZM1165.68 8726H1101.5V8734H1165.68V8726ZM1037.31 8726H973.123V8734H1037.31V8726ZM908.936 8726H844.75V8734H908.936V8726ZM780.563 8726H716.377V8734H780.563V8726ZM652.19 8726H588.004V8734H652.19V8726ZM523.817 8726H459.631V8734H523.817V8726ZM395.444 8726H331.257V8734H395.444V8726ZM267.071 8726H202.885V8734H267.071V8726ZM138.698 8726H74.5116V8734H138.698V8726ZM10.325 8726H-53.8616V8734H10.325V8726ZM-118.048 8726H-182.234V8734H-118.048V8726ZM-246.421 8726H-310.607V8734H-246.421V8726ZM-374.794 8726H-438.981V8734H-374.794V8726ZM-503.167 8726H-567.354V8734H-503.167V8726ZM-631.54 8726H-695.727V8734H-631.54V8726ZM-759.913 8726H-824.1V8734H-759.913V8726ZM-888.286 8726H-952.473V8734H-888.286V8726ZM-1016.66 8726H-1080.85V8734H-1016.66V8726ZM-1145.03 8726H-1209.22V8734H-1145.03V8726ZM-1273.41 8726H-1337.59V8734H-1273.41V8726ZM-1401.78 8726H-1465.97V8734H-1401.78V8726ZM-1530.15 8726H-1594.34V8734H-1530.15V8726ZM-1658.52 8726H-1722.71V8734H-1658.52V8726ZM-1786.9 8726H-1819V8734H-1786.9V8726Z" fill="white"/>
<g id="Landing - desktop" clip-path="url(#clip0_0_1)">
<rect width="1440" height="3106" transform="translate(-1001 -30)" fill="#F4F5F7"/>
<g id="Frame 427318165" clip-path="url(#clip1_0_1)">
<rect id="Rectangle 2" x="-1001" y="-30" width="1440" height="81" fill="white"/>
<path id="Rectangle 6" d="M-16 -12H28C32.4183 -12 36 -8.41828 36 -4V24C36 28.4183 32.4183 32 28 32H-16V-12Z" fill="#F4F5F7"/>
<g id="search-alt-svgrepo-com 1">
<path id="Vector" d="M14.3257 14.2975L18.3327 18.3334M16.4808 9.07416C16.4808 13.1652 13.1644 16.4816 9.07342 16.4816C4.98242 16.4816 1.66602 13.1652 1.66602 9.07416C1.66602 4.98316 4.98242 1.66675 9.07342 1.66675C13.1644 1.66675 16.4808 4.98316 16.4808 9.07416Z" stroke="#AAAAAA" stroke-width="1.3" stroke-linecap="round" stroke-linejoin="round"/>
</g>
</g>
</g>
</g>
<defs>
<clipPath id="clip0_0_1">
<rect width="1440" height="3106" fill="white" transform="translate(-1001 -30)"/>
</clipPath>
<clipPath id="clip1_0_1">
<rect width="1440" height="81" fill="white" transform="translate(-1001 -30)"/>
</clipPath>
</defs>
</svg>
