<svg width="18" height="18" viewBox="0 0 18 18" fill="none" xmlns="http://www.w3.org/2000/svg">
<path d="M6.05284 7.80693L9.88889 5.88891M11.9473 13.1403L6.33333 10.2667M17 3.66667C17 5.13942 15.8061 6.33333 14.3333 6.33333C12.8605 6.33333 11.6667 5.13942 11.6667 3.66667C11.6667 2.19391 12.8605 1 14.3333 1C15.8061 1 17 2.19391 17 3.66667ZM6.33333 9C6.33333 10.4728 5.13942 11.6667 3.66667 11.6667C2.19391 11.6667 1 10.4728 1 9C1 7.5272 2.19391 6.33333 3.66667 6.33333C5.13942 6.33333 6.33333 7.5272 6.33333 9ZM17 14.3333C17 15.8061 15.8061 17 14.3333 17C12.8605 17 11.6667 15.8061 11.6667 14.3333C11.6667 12.8605 12.8605 11.6667 14.3333 11.6667C15.8061 11.6667 17 12.8605 17 14.3333Z" stroke="#333333" stroke-width="1.3"/>
</svg>
