<svg width="20" height="20" viewBox="0 0 20 20" fill="none" xmlns="http://www.w3.org/2000/svg">
<path d="M14.0979 7.29357C15.3549 8.19161 16.8947 8.71999 18.5577 8.71999V5.5214C18.243 5.52147 17.9291 5.48867 17.6211 5.42346V7.94121C15.9582 7.94121 14.4186 7.41282 13.1613 6.51485V13.0422C13.1613 16.3076 10.5129 18.9545 7.24612 18.9545C6.0272 18.9545 4.89426 18.5861 3.95312 17.9545C5.02727 19.0522 6.52525 19.7332 8.18251 19.7332C11.4495 19.7332 14.0981 17.0863 14.0981 13.8208V7.29357H14.0979ZM15.2533 4.06658C14.611 3.36516 14.1892 2.4587 14.0979 1.45657V1.04517H13.2104C13.4338 2.31887 14.1958 3.40705 15.2533 4.06658ZM6.01938 15.4487C5.66048 14.9784 5.46654 14.4031 5.46741 13.8115C5.46741 12.318 6.67878 11.1071 8.17329 11.1071C8.45181 11.1071 8.72866 11.1497 8.9941 11.2339V7.96379C8.6839 7.9213 8.37084 7.90326 8.05791 7.90987V10.4551C7.79228 10.371 7.51529 10.3282 7.2367 10.3285C5.74219 10.3285 4.53089 11.5392 4.53089 13.0329C4.53089 14.089 5.13637 15.0033 6.01938 15.4487Z" fill="#FF004F"/>
<path d="M13.1617 6.51478C14.419 7.41275 15.9586 7.94114 17.6215 7.94114V5.4234C16.6933 5.22578 15.8715 4.74095 15.2537 4.06658C14.1961 3.40698 13.4342 2.3188 13.2107 1.04517H10.8794V13.8207C10.8741 15.3101 9.66482 16.516 8.17352 16.516C7.29472 16.516 6.51399 16.0973 6.01954 15.4487C5.1366 15.0033 4.53112 14.0889 4.53112 13.033C4.53112 11.5394 5.74242 10.3285 7.23693 10.3285C7.52327 10.3285 7.79926 10.3731 8.05814 10.4552V7.90994C4.84873 7.97622 2.26758 10.5972 2.26758 13.8208C2.26758 15.4299 2.91034 16.8887 3.95356 17.9545C4.89469 18.5861 6.02763 18.9545 7.24655 18.9545C10.5134 18.9545 13.1618 16.3075 13.1618 13.0422V6.51478H13.1617Z" fill="black"/>
<path d="M17.6225 5.42348V4.74271C16.7854 4.74398 15.9648 4.50968 15.2547 4.0666C15.8833 4.75453 16.7112 5.22887 17.6225 5.42348ZM13.2117 1.04525C13.1904 0.92353 13.174 0.801003 13.1627 0.678008V0.266602H9.94372V13.0423C9.93857 14.5314 8.72934 15.7374 7.2379 15.7374C6.80004 15.7374 6.38663 15.6335 6.02052 15.4489C6.51497 16.0974 7.29569 16.516 8.17449 16.516C9.66566 16.516 10.8752 15.3102 10.8804 13.8208V1.04525H13.2117ZM8.05925 7.91003V7.18529C7.79028 7.14855 7.5191 7.13011 7.24759 7.13024C3.98045 7.13018 1.33203 9.77719 1.33203 13.0423C1.33203 15.0893 2.37291 16.8933 3.9546 17.9545C2.91138 16.8887 2.26862 15.4299 2.26862 13.8208C2.26862 10.5973 4.8497 7.97631 8.05925 7.91003Z" fill="#00F2EA"/>
</svg>
