<svg width="20" height="20" viewBox="0 0 20 20" fill="none" xmlns="http://www.w3.org/2000/svg">
<path d="M5.0013 3.33341C5.0013 4.25389 4.25511 5.00008 3.33464 5.00008C2.41416 5.00008 1.66797 4.25389 1.66797 3.33341C1.66797 2.41294 2.41416 1.66675 3.33464 1.66675C4.25511 1.66675 5.0013 2.41294 5.0013 3.33341Z" stroke="#AAAAAA" stroke-width="1.3"/>
<path d="M5.0013 16.6667C5.0013 17.5872 4.25511 18.3333 3.33464 18.3333C2.41416 18.3333 1.66797 17.5872 1.66797 16.6667C1.66797 15.7462 2.41416 15 3.33464 15C4.25511 15 5.0013 15.7462 5.0013 16.6667Z" stroke="#AAAAAA" stroke-width="1.3"/>
<path d="M11.6654 16.6667C11.6654 17.5872 10.9192 18.3333 9.9987 18.3333C9.0782 18.3333 8.33203 17.5872 8.33203 16.6667C8.33203 15.7462 9.0782 15 9.9987 15C10.9192 15 11.6654 15.7462 11.6654 16.6667Z" stroke="#AAAAAA" stroke-width="1.3"/>
<path d="M11.6654 3.33341C11.6654 4.25389 10.9192 5.00008 9.9987 5.00008C9.0782 5.00008 8.33203 4.25389 8.33203 3.33341C8.33203 2.41294 9.0782 1.66675 9.9987 1.66675C10.9192 1.66675 11.6654 2.41294 11.6654 3.33341Z" stroke="#AAAAAA" stroke-width="1.3"/>
<path d="M18.3333 3.33341C18.3333 4.25389 17.5872 5.00008 16.6667 5.00008C15.7462 5.00008 15 4.25389 15 3.33341C15 2.41294 15.7462 1.66675 16.6667 1.66675C17.5872 1.66675 18.3333 2.41294 18.3333 3.33341Z" stroke="#AAAAAA" stroke-width="1.3"/>
<path d="M3.33203 5V15" stroke="#AAAAAA" stroke-width="1.3" stroke-linecap="round"/>
<path d="M10 5V15" stroke="#AAAAAA" stroke-width="1.3" stroke-linecap="round"/>
<path d="M16.6654 5V6.66667C16.6654 8.23802 16.6654 9.02367 16.1772 9.51183C15.689 10 14.9034 10 13.332 10H3.33203" stroke="#AAAAAA" stroke-width="1.3" stroke-linecap="round"/>
<path d="M15 12.5V11.875C14.6548 11.875 14.375 12.1548 14.375 12.5H15ZM14.375 18.3333C14.375 18.6785 14.6548 18.9583 15 18.9583C15.3452 18.9583 15.625 18.6785 15.625 18.3333H14.375ZM17.8003 18.6597C17.9805 18.9541 18.3653 19.0466 18.6597 18.8663C18.9541 18.6862 19.0466 18.3013 18.8663 18.007L17.8003 18.6597ZM15 13.125H16.9047V11.875H15V13.125ZM15.625 15.4167V12.5H14.375V15.4167H15.625ZM17.7083 13.9583C17.7083 14.4307 17.3365 14.7917 16.9047 14.7917V16.0417C18.051 16.0417 18.9583 15.0967 18.9583 13.9583H17.7083ZM16.9047 13.125C17.3365 13.125 17.7083 13.4859 17.7083 13.9583H18.9583C18.9583 12.8199 18.051 11.875 16.9047 11.875V13.125ZM16.9047 14.7917H16.5476V16.0417H16.9047V14.7917ZM16.5476 14.7917H15V16.0417H16.5476V14.7917ZM16.0146 15.743L17.8003 18.6597L18.8663 18.007L17.0807 15.0903L16.0146 15.743ZM14.375 15.4167V18.3333H15.625V15.4167H14.375Z" fill="#AAAAAA"/>
</svg>
