<svg width="20" height="20" viewBox="0 0 20 20" fill="none" xmlns="http://www.w3.org/2000/svg">
<path d="M9.55999 1.01041C4.76747 1.23676 0.985503 5.19574 1.00004 9.9549C1.00447 11.4044 1.35726 12.7726 1.9796 13.9815L1.02408 18.5822C0.972397 18.831 1.19868 19.0489 1.44792 18.9904L5.9928 17.9223C7.16045 18.4993 8.47197 18.8325 9.86001 18.8535C14.7584 18.9277 18.8428 15.0697 18.9955 10.2127C19.1592 5.00628 14.8272 0.76159 9.55999 1.01041ZM14.983 14.87C13.652 16.1903 11.8823 16.9174 10 16.9174C8.89785 16.9174 7.84264 16.6721 6.8636 16.1883L6.23067 15.8756L3.44419 16.5304L4.03073 13.7062L3.71891 13.1005C3.21066 12.1132 2.95296 11.0455 2.95296 9.92726C2.95296 8.06013 3.68597 6.30479 5.01697 4.9845C6.33609 3.67605 8.13463 2.93712 10.0001 2.93712C11.8824 2.93717 13.652 3.66425 14.983 4.98446C16.3141 6.3047 17.0471 8.06004 17.0471 9.92713C17.0471 11.7776 16.3021 13.5616 14.983 14.87Z" fill="url(#paint0_linear_264_934)"/>
<path d="M14.5482 11.7721L12.8743 11.3128C12.6542 11.2524 12.4172 11.312 12.2569 11.4682L11.8475 11.8668C11.6749 12.0348 11.413 12.0888 11.1846 12.0005C10.3927 11.6942 8.72702 10.2788 8.30163 9.57086C8.17891 9.36663 8.1992 9.11131 8.34989 8.92496L8.70727 8.48309C8.84728 8.30997 8.87683 8.07747 8.78423 7.87734L8.07998 6.35508C7.9113 5.99048 7.42378 5.88434 7.10528 6.14178C6.6381 6.5194 6.08379 7.09325 6.0164 7.72899C5.8976 8.84985 6.40057 10.2628 8.30259 11.9594C10.4999 13.9194 12.2596 14.1783 13.4052 13.9131C14.0551 13.7627 14.5744 13.1596 14.9021 12.6659C15.1256 12.3292 14.9491 11.8821 14.5482 11.7721Z" fill="url(#paint1_linear_264_934)"/>
<defs>
<linearGradient id="paint0_linear_264_934" x1="19.0733" y1="0.999993" x2="1.07394" y2="19.1461" gradientUnits="userSpaceOnUse">
<stop stop-color="#49EE65"/>
<stop offset="1" stop-color="#30BE2E"/>
</linearGradient>
<linearGradient id="paint1_linear_264_934" x1="18.413" y1="1.93018" x2="1.5972" y2="20.177" gradientUnits="userSpaceOnUse">
<stop stop-color="#49EE65"/>
<stop offset="1" stop-color="#30BE2E"/>
</linearGradient>
</defs>
</svg>
