<svg width="20" height="20" viewBox="0 0 20 20" fill="none" xmlns="http://www.w3.org/2000/svg">
<path fill-rule="evenodd" clip-rule="evenodd" d="M7.935 12.635L7.93437 5.84387L13.3381 9.25113L7.935 12.635ZM19.8 4.66708C19.8 4.66708 19.6044 3.00161 19.005 2.26819C18.2444 1.30516 17.3919 1.30061 17.0012 1.24472C14.2025 0.999996 10.0044 1 10.0044 1H9.99563C9.99563 1 5.7975 0.999996 2.99875 1.24472C2.6075 1.30061 1.75563 1.30516 0.994377 2.26819C0.395002 3.00161 0.199998 4.66708 0.199998 4.66708C0.199998 4.66708 0 6.62336 0 8.57889V10.4128C0 12.3691 0.199998 14.3246 0.199998 14.3246C0.199998 14.3246 0.395002 15.9901 0.994377 16.7235C1.75563 17.6865 2.755 17.6563 3.2 17.7568C4.8 17.9426 10 18 10 18C10 18 14.2025 17.9925 17.0012 17.7477C17.3919 17.6911 18.2444 17.6865 19.005 16.7235C19.6044 15.9901 19.8 14.3246 19.8 14.3246C19.8 14.3246 20 12.3691 20 10.4128V8.57889C20 6.62336 19.8 4.66708 19.8 4.66708Z" fill="#CE1312"/>
</svg>
