<svg width="18" height="15" viewBox="0 0 18 15" fill="none" xmlns="http://www.w3.org/2000/svg">
<path fill-rule="evenodd" clip-rule="evenodd" d="M7.1415 10.2661L7.14094 4.27394L12.0043 7.28035L7.1415 10.2661ZM17.82 3.2356C17.82 3.2356 17.6439 1.76606 17.1045 1.11893C16.4199 0.269193 15.6527 0.265187 15.3011 0.215869C12.7822 -6.41644e-05 9.00394 -6.10352e-05 9.00394 -6.10352e-05H8.99606C8.99606 -6.10352e-05 5.21775 -6.41644e-05 2.69888 0.215869C2.34675 0.265187 1.58006 0.269193 0.894939 1.11893C0.355502 1.76606 0.179998 3.2356 0.179998 3.2356C0.179998 3.2356 0 4.96173 0 6.68719V8.30536C0 10.0315 0.179998 11.757 0.179998 11.757C0.179998 11.757 0.355502 13.2265 0.894939 13.8736C1.58006 14.7234 2.4795 14.6967 2.88 14.7853C4.32 14.9493 9 14.9999 9 14.9999C9 14.9999 12.7822 14.9933 15.3011 14.7773C15.6527 14.7274 16.4199 14.7234 17.1045 13.8736C17.6439 13.2265 17.82 11.757 17.82 11.757C17.82 11.757 18 10.0315 18 8.30536V6.68719C18 4.96173 17.82 3.2356 17.82 3.2356Z" fill="#CE1312"/>
</svg>
